<?xml version='1.0' encoding='UTF-8' standalone='no'?>
<!-- Created with Fritzing (http://www.fritzing.org/) -->
<svg xmlns="http://www.w3.org/2000/svg" width="4in" x="0in" version="1.2" y="0in"  height="3in" viewBox="0 0 288 216" baseProfile="tiny" xmlns:svg="http://www.w3.org/2000/svg">
 <g transform="matrix(-1, 0, 0, 1, 288, 0)">
  <g partID="19232">
   <g id="silkscreen">
    <rect width="287.424" x="0.288" y="0.288" fill="none" height="215.424" stroke="black" stroke-width="0.576"/>
   </g>
  </g>
  <g partID="19230">
   <g id="board">
    <rect width="287.424" x="0.288" y="0.288" fill="none" height="215.424" stroke="black" fill-opacity="0.5" id="boardoutline" stroke-width="0.5"/>
   </g>
  </g>
  <g partID="784242">
   <g transform="translate(148.536,50.2006)">
    <g id="silkscreen">
     <line class="other" stroke="black" stroke-linecap="round" y1="0.288" x1="0.288" y2="0.288" stroke-width="0.576" x2="33.1699"/>
     <line class="other" stroke="black" stroke-linecap="round" y1="0.288" x1="33.1699" y2="17.8628" stroke-width="0.576" x2="33.1699"/>
     <line class="other" stroke="black" stroke-linecap="round" y1="17.8628" x1="33.1699" y2="20.1306" stroke-width="0.576" x2="33.1699"/>
     <line class="other" stroke="black" stroke-linecap="round" y1="20.1306" x1="33.1699" y2="20.1306" stroke-width="0.576" x2="0.288"/>
     <line class="other" stroke="black" stroke-linecap="round" y1="20.1306" x1="0.288" y2="17.8628" stroke-width="0.576" x2="0.288"/>
     <line class="other" stroke="black" stroke-linecap="round" y1="17.8628" x1="0.288" y2="0.288" stroke-width="0.576" x2="0.288"/>
     <line class="other" stroke="black" stroke-linecap="round" y1="17.8628" x1="33.1699" y2="17.8628" stroke-width="0.576" x2="0.288"/>
    </g>
   </g>
  </g>
  <g partID="19232">
   <g id="silkscreen">
    <rect width="287.424" x="0.288" y="0.288" fill="none" height="215.424" stroke="black" stroke-width="0.576"/>
   </g>
  </g>
  <g partID="677682">
   <g transform="translate(17.4632,63.2024)">
    <g id="silkscreen">
     <line stroke="black" id="vertical-left" y1="1.44" stroke-width="0.72" x1="1.44" y2="101.372" x2="1.44"/>
     <line stroke="black" id="bottom" y1="101.372" stroke-width="0.72" x1="1.44" y2="101.372" x2="16.992"/>
     <line stroke="black" id="vertical-right" y1="101.372" stroke-width="0.72" x1="16.992" y2="1.44" x2="16.992"/>
     <line stroke="black" id="top" y1="1.44" stroke-width="0.72" x1="16.992" y2="1.44" x2="1.44"/>
     <line stroke="black" id="mid-vertical" y1="101.372" stroke-width="0.36" x1="14.112" y2="1.44" x2="14.112"/>
    </g>
   </g>
  </g>
  <g partID="772842">
   <g transform="translate(179.319,138.606)">
    <g gorn="0.2" id="silkscreen">
     <line stroke="black" y1="0.72" stroke-width="0.72" x1="0.72" y2="29.52" x2="0.72"/>
     <line stroke="black" y1="29.52" stroke-width="0.72" x1="0.72" y2="29.52" x2="29.52"/>
     <line stroke="black" y1="29.52" stroke-width="0.72" x1="29.52" y2="0.72" x2="29.52"/>
     <line stroke="black" y1="0.72" stroke-width="0.72" x1="0.72" y2="0.72" x2="11.52"/>
     <line stroke="black" y1="0.72" stroke-width="0.72" x1="18.72" y2="0.72" x2="29.52"/>
    </g>
   </g>
  </g>
  <g partID="772762">
   <g transform="translate(130.359,118.446)">
    <g transform="matrix(-1,0,0,-1,0,0)">
     <g gorn="0.2" id="silkscreen">
      <line stroke="black" y1="0.72" stroke-width="0.72" x1="0.72" y2="29.52" x2="0.72"/>
      <line stroke="black" y1="29.52" stroke-width="0.72" x1="0.72" y2="29.52" x2="29.52"/>
      <line stroke="black" y1="29.52" stroke-width="0.72" x1="29.52" y2="0.72" x2="29.52"/>
      <line stroke="black" y1="0.72" stroke-width="0.72" x1="0.72" y2="0.72" x2="11.52"/>
      <line stroke="black" y1="0.72" stroke-width="0.72" x1="18.72" y2="0.72" x2="29.52"/>
     </g>
    </g>
   </g>
  </g>
  <g partID="772722">
   <g transform="translate(222.519,118.446)">
    <g transform="matrix(0,-1,1,0,0,0)">
     <g gorn="0.2" id="silkscreen">
      <line stroke="black" y1="0.72" stroke-width="0.72" x1="0.72" y2="29.52" x2="0.72"/>
      <line stroke="black" y1="29.52" stroke-width="0.72" x1="0.72" y2="29.52" x2="29.52"/>
      <line stroke="black" y1="29.52" stroke-width="0.72" x1="29.52" y2="0.72" x2="29.52"/>
      <line stroke="black" y1="0.72" stroke-width="0.72" x1="0.72" y2="0.72" x2="11.52"/>
      <line stroke="black" y1="0.72" stroke-width="0.72" x1="18.72" y2="0.72" x2="29.52"/>
     </g>
    </g>
   </g>
  </g>
  <g partID="772742">
   <g transform="translate(94.3592,168.846)">
    <g transform="matrix(-1,0,0,-1,0,0)">
     <g gorn="0.2" id="silkscreen">
      <line stroke="black" y1="0.72" stroke-width="0.72" x1="0.72" y2="29.52" x2="0.72"/>
      <line stroke="black" y1="29.52" stroke-width="0.72" x1="0.72" y2="29.52" x2="29.52"/>
      <line stroke="black" y1="29.52" stroke-width="0.72" x1="29.52" y2="0.72" x2="29.52"/>
      <line stroke="black" y1="0.72" stroke-width="0.72" x1="0.72" y2="0.72" x2="11.52"/>
      <line stroke="black" y1="0.72" stroke-width="0.72" x1="18.72" y2="0.72" x2="29.52"/>
     </g>
    </g>
   </g>
  </g>
  <g partID="772822">
   <g transform="translate(209.559,118.446)">
    <g transform="matrix(-1,0,0,-1,0,0)">
     <g gorn="0.2" id="silkscreen">
      <line stroke="black" y1="0.72" stroke-width="0.72" x1="0.72" y2="29.52" x2="0.72"/>
      <line stroke="black" y1="29.52" stroke-width="0.72" x1="0.72" y2="29.52" x2="29.52"/>
      <line stroke="black" y1="29.52" stroke-width="0.72" x1="29.52" y2="0.72" x2="29.52"/>
      <line stroke="black" y1="0.72" stroke-width="0.72" x1="0.72" y2="0.72" x2="11.52"/>
      <line stroke="black" y1="0.72" stroke-width="0.72" x1="18.72" y2="0.72" x2="29.52"/>
     </g>
    </g>
   </g>
  </g>
  <g partID="772662">
   <g transform="translate(100.119,138.606)">
    <g gorn="0.2" id="silkscreen">
     <line stroke="black" y1="0.72" stroke-width="0.72" x1="0.72" y2="29.52" x2="0.72"/>
     <line stroke="black" y1="29.52" stroke-width="0.72" x1="0.72" y2="29.52" x2="29.52"/>
     <line stroke="black" y1="29.52" stroke-width="0.72" x1="29.52" y2="0.72" x2="29.52"/>
     <line stroke="black" y1="0.72" stroke-width="0.72" x1="0.72" y2="0.72" x2="11.52"/>
     <line stroke="black" y1="0.72" stroke-width="0.72" x1="18.72" y2="0.72" x2="29.52"/>
    </g>
   </g>
  </g>
  <g partID="772682">
   <g transform="translate(64.1192,88.2064)">
    <g gorn="0.2" id="silkscreen">
     <line stroke="black" y1="0.72" stroke-width="0.72" x1="0.72" y2="29.52" x2="0.72"/>
     <line stroke="black" y1="29.52" stroke-width="0.72" x1="0.72" y2="29.52" x2="29.52"/>
     <line stroke="black" y1="29.52" stroke-width="0.72" x1="29.52" y2="0.72" x2="29.52"/>
     <line stroke="black" y1="0.72" stroke-width="0.72" x1="0.72" y2="0.72" x2="11.52"/>
     <line stroke="black" y1="0.72" stroke-width="0.72" x1="18.72" y2="0.72" x2="29.52"/>
    </g>
   </g>
  </g>
  <g partID="772802">
   <g transform="translate(143.319,88.2064)">
    <g gorn="0.2" id="silkscreen">
     <line stroke="black" y1="0.72" stroke-width="0.72" x1="0.72" y2="29.52" x2="0.72"/>
     <line stroke="black" y1="29.52" stroke-width="0.72" x1="0.72" y2="29.52" x2="29.52"/>
     <line stroke="black" y1="29.52" stroke-width="0.72" x1="29.52" y2="0.72" x2="29.52"/>
     <line stroke="black" y1="0.72" stroke-width="0.72" x1="0.72" y2="0.72" x2="11.52"/>
     <line stroke="black" y1="0.72" stroke-width="0.72" x1="18.72" y2="0.72" x2="29.52"/>
    </g>
   </g>
  </g>
  <g partID="772782">
   <g transform="translate(173.559,168.846)">
    <g transform="matrix(-1,0,0,-1,0,0)">
     <g gorn="0.2" id="silkscreen">
      <line stroke="black" y1="0.72" stroke-width="0.72" x1="0.72" y2="29.52" x2="0.72"/>
      <line stroke="black" y1="29.52" stroke-width="0.72" x1="0.72" y2="29.52" x2="29.52"/>
      <line stroke="black" y1="29.52" stroke-width="0.72" x1="29.52" y2="0.72" x2="29.52"/>
      <line stroke="black" y1="0.72" stroke-width="0.72" x1="0.72" y2="0.72" x2="11.52"/>
      <line stroke="black" y1="0.72" stroke-width="0.72" x1="18.72" y2="0.72" x2="29.52"/>
     </g>
    </g>
   </g>
  </g>
  <g partID="772702">
   <g transform="translate(222.519,168.846)">
    <g transform="matrix(0,-1,1,0,0,0)">
     <g gorn="0.2" id="silkscreen">
      <line stroke="black" y1="0.72" stroke-width="0.72" x1="0.72" y2="29.52" x2="0.72"/>
      <line stroke="black" y1="29.52" stroke-width="0.72" x1="0.72" y2="29.52" x2="29.52"/>
      <line stroke="black" y1="29.52" stroke-width="0.72" x1="29.52" y2="0.72" x2="29.52"/>
      <line stroke="black" y1="0.72" stroke-width="0.72" x1="0.72" y2="0.72" x2="11.52"/>
      <line stroke="black" y1="0.72" stroke-width="0.72" x1="18.72" y2="0.72" x2="29.52"/>
     </g>
    </g>
   </g>
  </g>
  <g partID="792572">
   <g transform="translate(159.339,125.43)">
    <g gorn="0.2" id="silkscreen">
     <line stroke="black" y1="3.096" x1="5.4" y2="3.096" stroke-width="0.72" x2="10.584"/>
     <line stroke="black" y1="3.096" x1="24.984" y2="3.096" stroke-width="0.72" x2="28.8"/>
     <line stroke="black" y1="0.72" x1="10.584" y2="0.72" stroke-width="0.72" x2="24.984"/>
     <line stroke="black" y1="0.72" x1="24.984" y2="5.472" stroke-width="0.72" x2="24.984"/>
     <line stroke="black" y1="5.472" x1="24.984" y2="5.472" stroke-width="0.72" x2="10.584"/>
     <line stroke="black" y1="5.472" x1="10.584" y2="0.72" stroke-width="0.72" x2="10.584"/>
    </g>
   </g>
  </g>
  <g partID="792882">
   <g transform="translate(123.339,125.43)">
    <g gorn="0.2" id="silkscreen">
     <line stroke="black" y1="3.096" x1="5.4" y2="3.096" stroke-width="0.72" x2="10.584"/>
     <line stroke="black" y1="3.096" x1="24.984" y2="3.096" stroke-width="0.72" x2="28.8"/>
     <line stroke="black" y1="0.72" x1="10.584" y2="0.72" stroke-width="0.72" x2="24.984"/>
     <line stroke="black" y1="0.72" x1="24.984" y2="5.472" stroke-width="0.72" x2="24.984"/>
     <line stroke="black" y1="5.472" x1="24.984" y2="5.472" stroke-width="0.72" x2="10.584"/>
     <line stroke="black" y1="5.472" x1="10.584" y2="0.72" stroke-width="0.72" x2="10.584"/>
    </g>
   </g>
  </g>
  <g partID="793622">
   <g transform="translate(17.4632,175.766)">
    <g id="silkscreen">
     <line stroke="black" id="vertical-left" y1="1.44" stroke-width="0.72" x1="1.44" y2="31.9238" x2="1.44"/>
     <line stroke="black" id="bottom" y1="31.9238" stroke-width="0.72" x1="1.44" y2="31.9238" x2="16.992"/>
     <line stroke="black" id="vertical-right" y1="31.9238" stroke-width="0.72" x1="16.992" y2="1.44" x2="16.992"/>
     <line stroke="black" id="top" y1="1.44" stroke-width="0.72" x1="16.992" y2="1.44" x2="1.44"/>
     <line stroke="black" id="mid-vertical" y1="31.9238" stroke-width="0.36" x1="14.112" y2="1.44" x2="14.112"/>
    </g>
   </g>
  </g>
  <g id="partLabel" partID="67220">
   <g transform="translate(72.9896,47.7915)">
    <g fill="#000000" font-family="'OCRA'" stroke="none" font-style="normal" fill-opacity="1" font-weight="normal" id="silkscreenLabel" font-size="5">
     <text x="0" y="3.75">Raspberry Pi</text>
    </g>
   </g>
  </g>
  <g id="partLabel" partID="784240">
   <g transform="translate(158.527,45.1339)">
    <g fill="#000000" font-family="'OCRA'" stroke="none" font-style="normal" fill-opacity="1" font-weight="normal" id="silkscreenLabel" font-size="5">
     <text x="0" y="3.75">JP1</text>
    </g>
   </g>
  </g>
  <g id="partLabel" partID="792570">
   <g transform="translate(173.628,119.83)">
    <g fill="#000000" font-family="'OCRA'" stroke="none" font-style="normal" fill-opacity="1" font-weight="normal" id="silkscreenLabel" font-size="5">
     <text x="0" y="3.75">R2</text>
    </g>
   </g>
  </g>
  <g id="partLabel" partID="677680">
   <g transform="translate(23.0952,58.6691)">
    <g fill="#000000" font-family="'OCRA'" stroke="none" font-style="normal" fill-opacity="1" font-weight="normal" id="silkscreenLabel" font-size="5">
     <text x="0" y="3.75">J2</text>
    </g>
   </g>
  </g>
  <g id="partLabel" partID="792880">
   <g transform="translate(137.806,120.364)">
    <g fill="#000000" font-family="'OCRA'" stroke="none" font-style="normal" fill-opacity="1" font-weight="normal" id="silkscreenLabel" font-size="5">
     <text x="0" y="3.75">R1</text>
    </g>
   </g>
  </g>
  <g id="partLabel" partID="793620">
   <g transform="translate(23.4508,170.521)">
    <g fill="#000000" font-family="'OCRA'" stroke="none" font-style="normal" fill-opacity="1" font-weight="normal" id="silkscreenLabel" font-size="5">
     <text x="0" y="3.75">J1</text>
    </g>
   </g>
  </g>
  <g id="partLabel" partID="772660">
   <g transform="translate(107.959,170.873)">
    <g fill="#000000" font-family="'OCRA'" stroke="none" font-style="normal" fill-opacity="1" font-weight="normal" id="silkscreenLabel" font-size="5">
     <text x="0" y="3.75">SSR8</text>
    </g>
   </g>
  </g>
  <g id="partLabel" partID="772680">
   <g transform="translate(73.2036,119.584)">
    <g fill="#000000" font-family="'OCRA'" stroke="none" font-style="normal" fill-opacity="1" font-weight="normal" id="silkscreenLabel" font-size="5">
     <text x="0" y="3.75">SSR1</text>
    </g>
   </g>
  </g>
  <g id="partLabel" partID="772840">
   <g transform="translate(186.626,170.695)">
    <g fill="#000000" font-family="'OCRA'" stroke="none" font-style="normal" fill-opacity="1" font-weight="normal" id="silkscreenLabel" font-size="5">
     <text x="0" y="3.75">SSR10</text>
    </g>
   </g>
  </g>
  <g id="partLabel" partID="772760">
   <g transform="translate(107.426,119.051)">
    <g fill="#000000" font-family="'OCRA'" stroke="none" font-style="normal" fill-opacity="1" font-weight="normal" id="silkscreenLabel" font-size="5">
     <text x="0" y="3.75">SSR2</text>
    </g>
   </g>
  </g>
  <g id="partLabel" partID="772720">
   <g transform="translate(230.715,119.762)">
    <g fill="#000000" font-family="'OCRA'" stroke="none" font-style="normal" fill-opacity="1" font-weight="normal" id="silkscreenLabel" font-size="5">
     <text x="0" y="3.75">SSR5</text>
    </g>
   </g>
  </g>
  <g id="partLabel" partID="772780">
   <g transform="translate(151.87,170.518)">
    <g fill="#000000" font-family="'OCRA'" stroke="none" font-style="normal" fill-opacity="1" font-weight="normal" id="silkscreenLabel" font-size="5">
     <text x="0" y="3.75">SSR9</text>
    </g>
   </g>
  </g>
  <g id="partLabel" partID="772700">
   <g transform="translate(231.248,171.051)">
    <g fill="#000000" font-family="'OCRA'" stroke="none" font-style="normal" fill-opacity="1" font-weight="normal" id="silkscreenLabel" font-size="5">
     <text x="0" y="3.75">SSR6</text>
    </g>
   </g>
  </g>
  <g id="partLabel" partID="772800">
   <g transform="translate(151.159,119.406)">
    <g fill="#000000" font-family="'OCRA'" stroke="none" font-style="normal" fill-opacity="1" font-weight="normal" id="silkscreenLabel" font-size="5">
     <text x="0" y="3.75">SSR3</text>
    </g>
   </g>
  </g>
  <g id="partLabel" partID="772740">
   <g transform="translate(72.8481,171.051)">
    <g fill="#000000" font-family="'OCRA'" stroke="none" font-style="normal" fill-opacity="1" font-weight="normal" id="silkscreenLabel" font-size="5">
     <text x="0" y="3.75">SSR7</text>
    </g>
   </g>
  </g>
  <g id="partLabel" partID="772820">
   <g transform="translate(187.515,120.118)">
    <g fill="#000000" font-family="'OCRA'" stroke="none" font-style="normal" fill-opacity="1" font-weight="normal" id="silkscreenLabel" font-size="5">
     <text x="0" y="3.75">SSR4</text>
    </g>
   </g>
  </g>
  <g partID="784241">
   <g transform="translate(148.536,50.2006)">
    <g id="copper1">
     <circle fill="white" cx="6.30369" cy="9.92581" connectorname="1" stroke="white" id="connector0pad" r="2.29039" stroke-width="1.89921"/>
     <path fill="white" stroke="white" stroke-width="0.72" d="m3.42369,7.04581,5.76,0,0,5.76001,-5.76,0,0,-8.50395zM4.6029,9.92581a1.70079,1.70079,0,1,0,3.40158,0,1.70079,1.70079,0,1,0,-3.40158,0z"/>
     <circle fill="white" cx="16.7289" cy="9.92581" connectorname="2" stroke="white" id="connector1pad" r="2.29039" stroke-width="1.89921"/>
     <circle fill="white" cx="27.1542" cy="9.92581" connectorname="3" stroke="white" id="connector2pad" r="2.29039" stroke-width="1.89921"/>
     <g id="copper0">
      <circle fill="white" cx="6.30369" cy="9.92581" connectorname="1" stroke="white" id="connector0pad" r="2.29039" stroke-width="1.89921"/>
      <path fill="white" stroke="white" stroke-width="0.72" d="m3.42369,7.04581,5.76,0,0,5.76001,-5.76,0,0,-8.50395zM4.6029,9.92581a1.70079,1.70079,0,1,0,3.40158,0,1.70079,1.70079,0,1,0,-3.40158,0z"/>
      <circle fill="white" cx="16.7289" cy="9.92581" connectorname="2" stroke="white" id="connector1pad" r="2.29039" stroke-width="1.89921"/>
      <circle fill="white" cx="27.1542" cy="9.92581" connectorname="3" stroke="white" id="connector2pad" r="2.29039" stroke-width="1.89921"/>
     </g>
    </g>
   </g>
  </g>
  <g partID="789981">
   <g transform="translate(75.004,70.184)">
    <g id="copper1">
     <circle fill="white" cx="3.01733" cy="3.01733" stroke="white" r="0.992124" id="connector0pin" stroke-width="1.57039"/>
    </g>
   </g>
  </g>
  <g partID="790031">
   <g transform="translate(85.6704,70.184)">
    <g id="copper1">
     <circle fill="white" cx="3.01733" cy="3.01733" stroke="white" r="0.992124" id="connector0pin" stroke-width="1.57039"/>
    </g>
   </g>
  </g>
  <g partID="677681">
   <g transform="translate(17.4632,63.2024)">
    <g id="copper1">
     <g id="copper0">
      <rect width="4.32" x="5.616" y="4.60063" fill="white" height="4.32" stroke="white" id="square" stroke-width="2.16"/>
      <circle fill="white" cx="7.776" cy="6.76063" stroke="white" id="connector0pin" r="2.16" stroke-width="2.16"/>
      <circle fill="white" cx="7.776" cy="16.6819" stroke="white" id="connector1pin" r="2.16" stroke-width="2.16"/>
      <circle fill="white" cx="7.776" cy="26.6031" stroke="white" id="connector2pin" r="2.16" stroke-width="2.16"/>
      <circle fill="white" cx="7.776" cy="36.5244" stroke="white" id="connector3pin" r="2.16" stroke-width="2.16"/>
      <circle fill="white" cx="7.776" cy="46.4457" stroke="white" id="connector4pin" r="2.16" stroke-width="2.16"/>
      <circle fill="white" cx="7.776" cy="56.3669" stroke="white" id="connector5pin" r="2.16" stroke-width="2.16"/>
      <circle fill="white" cx="7.776" cy="66.2882" stroke="white" id="connector6pin" r="2.16" stroke-width="2.16"/>
      <circle fill="white" cx="7.776" cy="76.2091" stroke="white" id="connector7pin" r="2.16" stroke-width="2.16"/>
      <circle fill="white" cx="7.776" cy="86.1307" stroke="white" id="connector8pin" r="2.16" stroke-width="2.16"/>
      <circle fill="white" cx="7.776" cy="96.0523" stroke="white" id="connector9pin" r="2.16" stroke-width="2.16"/>
     </g>
    </g>
   </g>
  </g>
  <g partID="67221">
   <g transform="translate(47.5872,49.9264)">
    <g gorn="0.1.1" id="copper1">
     <g gorn="0.1.1.0" id="copper0">
      <circle fill="white" cx="6.449" gorn="0.1.1.0.0" cy="6.60199" stroke="white" id="connector1pin" r="2.477" stroke-width="2.22"/>
      <circle fill="white" cx="13.652" gorn="0.1.1.0.1" cy="6.59999" stroke="white" id="connector27pin" r="2.475" stroke-width="2.22"/>
      <circle fill="white" cx="20.851" gorn="0.1.1.0.2" cy="6.59999" stroke="white" id="connector5pin" r="2.475" stroke-width="2.22"/>
      <circle fill="white" cx="28.051" gorn="0.1.1.0.3" cy="6.59999" stroke="white" id="connector7pin" r="2.475" stroke-width="2.22"/>
      <circle fill="white" cx="35.251" gorn="0.1.1.0.4" cy="6.59999" stroke="white" id="connector9pin" r="2.475" stroke-width="2.22"/>
      <circle fill="white" cx="42.452" gorn="0.1.1.0.5" cy="6.59999" stroke="white" id="connector11pin" r="2.475" stroke-width="2.22"/>
      <circle fill="white" cx="49.653" gorn="0.1.1.0.6" cy="6.59999" stroke="white" id="connector28pin" r="2.475" stroke-width="2.22"/>
      <circle fill="white" cx="56.852" gorn="0.1.1.0.7" cy="6.59999" stroke="white" id="connector15pin" r="2.475" stroke-width="2.22"/>
      <circle fill="white" cx="64.052" gorn="0.1.1.0.8" cy="6.59999" stroke="white" id="connector17pin" r="2.475" stroke-width="2.22"/>
      <circle fill="white" cx="71.252" gorn="0.1.1.0.9" cy="6.59999" stroke="white" id="connector29pin" r="2.475" stroke-width="2.22"/>
      <circle fill="white" cx="78.453" gorn="0.1.1.0.10" cy="6.56399" stroke="white" id="connector21pin" r="2.475" stroke-width="2.22"/>
      <circle fill="white" cx="85.653" gorn="0.1.1.0.11" cy="6.56399" stroke="white" id="connector23pin" r="2.475" stroke-width="2.22"/>
      <circle fill="white" cx="92.853" gorn="0.1.1.0.12" cy="6.56399" stroke="white" id="connector25pin" r="2.475" stroke-width="2.22"/>
      <circle fill="white" cx="6.448" gorn="0.1.1.0.13" cy="13.802" stroke="white" id="connector0pin" r="2.475" stroke-width="2.22"/>
      <circle fill="white" cx="13.572" gorn="0.1.1.0.14" cy="13.802" stroke="white" id="connector2pin" r="2.475" stroke-width="2.22"/>
      <circle fill="white" cx="20.851" gorn="0.1.1.0.15" cy="13.795" stroke="white" id="connector4pin" r="2.475" stroke-width="2.22"/>
      <circle fill="white" cx="28.051" gorn="0.1.1.0.16" cy="13.795" stroke="white" id="connector6pin" r="2.475" stroke-width="2.22"/>
      <circle fill="white" cx="35.251" gorn="0.1.1.0.17" cy="13.795" stroke="white" id="connector26pin" r="2.475" stroke-width="2.22"/>
      <circle fill="white" cx="42.451" gorn="0.1.1.0.18" cy="13.795" stroke="white" id="connector10pin" r="2.475" stroke-width="2.22"/>
      <circle fill="white" cx="49.652" gorn="0.1.1.0.19" cy="13.795" stroke="white" id="connector12pin" r="2.475" stroke-width="2.22"/>
      <circle fill="white" cx="56.852" gorn="0.1.1.0.20" cy="13.795" stroke="white" id="connector14pin" r="2.475" stroke-width="2.22"/>
      <circle fill="white" cx="64.052" gorn="0.1.1.0.21" cy="13.795" stroke="white" id="connector30pin" r="2.475" stroke-width="2.22"/>
      <circle fill="white" cx="71.252" gorn="0.1.1.0.22" cy="13.795" stroke="white" id="connector18pin" r="2.475" stroke-width="2.22"/>
      <circle fill="white" cx="78.453" gorn="0.1.1.0.23" cy="13.759" stroke="white" id="connector20pin" r="2.475" stroke-width="2.22"/>
      <circle fill="white" cx="85.653" gorn="0.1.1.0.24" cy="13.759" stroke="white" id="connector22pin" r="2.475" stroke-width="2.22"/>
      <circle fill="white" cx="92.853" gorn="0.1.1.0.25" cy="13.759" stroke="white" id="connector31pin" r="2.475" stroke-width="2.22"/>
     </g>
    </g>
   </g>
  </g>
  <g partID="772841">
   <g transform="translate(179.319,138.606)">
    <g gorn="0.3" id="copper1">
     <g gorn="0.3.0" id="copper0">
      <rect width="3.96" x="2.34" y="2.34" fill="white" gorn="0.3.0.0" height="3.96" stroke="white" id="square" stroke-width="2.16"/>
      <circle fill="white" cx="4.32" gorn="0.3.0.1" cy="4.32" stroke="white" id="connector0pin" r="1.98" stroke-width="2.16"/>
      <circle fill="white" cx="25.92" gorn="0.3.0.2" cy="4.32" stroke="white" id="connector7pin" r="1.98" stroke-width="2.16"/>
      <circle fill="white" cx="4.32" gorn="0.3.0.3" cy="11.52" stroke="white" id="connector1pin" r="1.98" stroke-width="2.16"/>
      <rect fill="white" cx="332.5" gorn="0.3.0.4" cy="132.5" stroke="white" id="connector6pin" r="27.5" stroke-width="2.16"/>
      <circle fill="white" cx="4.32" gorn="0.3.0.5" cy="18.72" stroke="white" id="connector2pin" r="1.98" stroke-width="2.16"/>
      <circle fill="white" cx="25.92" gorn="0.3.0.6" cy="18.72" stroke="white" id="connector5pin" r="1.98" stroke-width="2.16"/>
      <circle fill="white" cx="4.32" gorn="0.3.0.7" cy="25.92" stroke="white" id="connector3pin" r="1.98" stroke-width="2.16"/>
      <circle fill="white" cx="25.92" gorn="0.3.0.8" cy="25.92" stroke="white" id="connector4pin" r="1.98" stroke-width="2.16"/>
     </g>
    </g>
   </g>
  </g>
  <g partID="772761">
   <g transform="translate(130.359,118.446)">
    <g transform="matrix(-1,0,0,-1,0,0)">
     <g gorn="0.3" id="copper1">
      <g gorn="0.3.0" id="copper0">
       <rect width="3.96" x="2.34" y="2.34" fill="white" gorn="0.3.0.0" height="3.96" stroke="white" id="square" stroke-width="2.16"/>
       <circle fill="white" cx="4.32" gorn="0.3.0.1" cy="4.32" stroke="white" id="connector0pin" r="1.98" stroke-width="2.16"/>
       <circle fill="white" cx="25.92" gorn="0.3.0.2" cy="4.32" stroke="white" id="connector7pin" r="1.98" stroke-width="2.16"/>
       <circle fill="white" cx="4.32" gorn="0.3.0.3" cy="11.52" stroke="white" id="connector1pin" r="1.98" stroke-width="2.16"/>
       <rect fill="white" cx="332.5" gorn="0.3.0.4" cy="132.5" stroke="white" id="connector6pin" r="27.5" stroke-width="2.16"/>
       <circle fill="white" cx="4.32" gorn="0.3.0.5" cy="18.72" stroke="white" id="connector2pin" r="1.98" stroke-width="2.16"/>
       <circle fill="white" cx="25.92" gorn="0.3.0.6" cy="18.72" stroke="white" id="connector5pin" r="1.98" stroke-width="2.16"/>
       <circle fill="white" cx="4.32" gorn="0.3.0.7" cy="25.92" stroke="white" id="connector3pin" r="1.98" stroke-width="2.16"/>
       <circle fill="white" cx="25.92" gorn="0.3.0.8" cy="25.92" stroke="white" id="connector4pin" r="1.98" stroke-width="2.16"/>
      </g>
     </g>
    </g>
   </g>
  </g>
  <g partID="772721">
   <g transform="translate(222.519,118.446)">
    <g transform="matrix(0,-1,1,0,0,0)">
     <g gorn="0.3" id="copper1">
      <g gorn="0.3.0" id="copper0">
       <rect width="3.96" x="2.34" y="2.34" fill="white" gorn="0.3.0.0" height="3.96" stroke="white" id="square" stroke-width="2.16"/>
       <circle fill="white" cx="4.32" gorn="0.3.0.1" cy="4.32" stroke="white" id="connector0pin" r="1.98" stroke-width="2.16"/>
       <circle fill="white" cx="25.92" gorn="0.3.0.2" cy="4.32" stroke="white" id="connector7pin" r="1.98" stroke-width="2.16"/>
       <circle fill="white" cx="4.32" gorn="0.3.0.3" cy="11.52" stroke="white" id="connector1pin" r="1.98" stroke-width="2.16"/>
       <rect fill="white" cx="332.5" gorn="0.3.0.4" cy="132.5" stroke="white" id="connector6pin" r="27.5" stroke-width="2.16"/>
       <circle fill="white" cx="4.32" gorn="0.3.0.5" cy="18.72" stroke="white" id="connector2pin" r="1.98" stroke-width="2.16"/>
       <circle fill="white" cx="25.92" gorn="0.3.0.6" cy="18.72" stroke="white" id="connector5pin" r="1.98" stroke-width="2.16"/>
       <circle fill="white" cx="4.32" gorn="0.3.0.7" cy="25.92" stroke="white" id="connector3pin" r="1.98" stroke-width="2.16"/>
       <circle fill="white" cx="25.92" gorn="0.3.0.8" cy="25.92" stroke="white" id="connector4pin" r="1.98" stroke-width="2.16"/>
      </g>
     </g>
    </g>
   </g>
  </g>
  <g partID="772741">
   <g transform="translate(94.3592,168.846)">
    <g transform="matrix(-1,0,0,-1,0,0)">
     <g gorn="0.3" id="copper1">
      <g gorn="0.3.0" id="copper0">
       <rect width="3.96" x="2.34" y="2.34" fill="white" gorn="0.3.0.0" height="3.96" stroke="white" id="square" stroke-width="2.16"/>
       <circle fill="white" cx="4.32" gorn="0.3.0.1" cy="4.32" stroke="white" id="connector0pin" r="1.98" stroke-width="2.16"/>
       <circle fill="white" cx="25.92" gorn="0.3.0.2" cy="4.32" stroke="white" id="connector7pin" r="1.98" stroke-width="2.16"/>
       <circle fill="white" cx="4.32" gorn="0.3.0.3" cy="11.52" stroke="white" id="connector1pin" r="1.98" stroke-width="2.16"/>
       <rect fill="white" cx="332.5" gorn="0.3.0.4" cy="132.5" stroke="white" id="connector6pin" r="27.5" stroke-width="2.16"/>
       <circle fill="white" cx="4.32" gorn="0.3.0.5" cy="18.72" stroke="white" id="connector2pin" r="1.98" stroke-width="2.16"/>
       <circle fill="white" cx="25.92" gorn="0.3.0.6" cy="18.72" stroke="white" id="connector5pin" r="1.98" stroke-width="2.16"/>
       <circle fill="white" cx="4.32" gorn="0.3.0.7" cy="25.92" stroke="white" id="connector3pin" r="1.98" stroke-width="2.16"/>
       <circle fill="white" cx="25.92" gorn="0.3.0.8" cy="25.92" stroke="white" id="connector4pin" r="1.98" stroke-width="2.16"/>
      </g>
     </g>
    </g>
   </g>
  </g>
  <g partID="772821">
   <g transform="translate(209.559,118.446)">
    <g transform="matrix(-1,0,0,-1,0,0)">
     <g gorn="0.3" id="copper1">
      <g gorn="0.3.0" id="copper0">
       <rect width="3.96" x="2.34" y="2.34" fill="white" gorn="0.3.0.0" height="3.96" stroke="white" id="square" stroke-width="2.16"/>
       <circle fill="white" cx="4.32" gorn="0.3.0.1" cy="4.32" stroke="white" id="connector0pin" r="1.98" stroke-width="2.16"/>
       <circle fill="white" cx="25.92" gorn="0.3.0.2" cy="4.32" stroke="white" id="connector7pin" r="1.98" stroke-width="2.16"/>
       <circle fill="white" cx="4.32" gorn="0.3.0.3" cy="11.52" stroke="white" id="connector1pin" r="1.98" stroke-width="2.16"/>
       <rect fill="white" cx="332.5" gorn="0.3.0.4" cy="132.5" stroke="white" id="connector6pin" r="27.5" stroke-width="2.16"/>
       <circle fill="white" cx="4.32" gorn="0.3.0.5" cy="18.72" stroke="white" id="connector2pin" r="1.98" stroke-width="2.16"/>
       <circle fill="white" cx="25.92" gorn="0.3.0.6" cy="18.72" stroke="white" id="connector5pin" r="1.98" stroke-width="2.16"/>
       <circle fill="white" cx="4.32" gorn="0.3.0.7" cy="25.92" stroke="white" id="connector3pin" r="1.98" stroke-width="2.16"/>
       <circle fill="white" cx="25.92" gorn="0.3.0.8" cy="25.92" stroke="white" id="connector4pin" r="1.98" stroke-width="2.16"/>
      </g>
     </g>
    </g>
   </g>
  </g>
  <g partID="772661">
   <g transform="translate(100.119,138.606)">
    <g gorn="0.3" id="copper1">
     <g gorn="0.3.0" id="copper0">
      <rect width="3.96" x="2.34" y="2.34" fill="white" gorn="0.3.0.0" height="3.96" stroke="white" id="square" stroke-width="2.16"/>
      <circle fill="white" cx="4.32" gorn="0.3.0.1" cy="4.32" stroke="white" id="connector0pin" r="1.98" stroke-width="2.16"/>
      <circle fill="white" cx="25.92" gorn="0.3.0.2" cy="4.32" stroke="white" id="connector7pin" r="1.98" stroke-width="2.16"/>
      <circle fill="white" cx="4.32" gorn="0.3.0.3" cy="11.52" stroke="white" id="connector1pin" r="1.98" stroke-width="2.16"/>
      <rect fill="white" cx="332.5" gorn="0.3.0.4" cy="132.5" stroke="white" id="connector6pin" r="27.5" stroke-width="2.16"/>
      <circle fill="white" cx="4.32" gorn="0.3.0.5" cy="18.72" stroke="white" id="connector2pin" r="1.98" stroke-width="2.16"/>
      <circle fill="white" cx="25.92" gorn="0.3.0.6" cy="18.72" stroke="white" id="connector5pin" r="1.98" stroke-width="2.16"/>
      <circle fill="white" cx="4.32" gorn="0.3.0.7" cy="25.92" stroke="white" id="connector3pin" r="1.98" stroke-width="2.16"/>
      <circle fill="white" cx="25.92" gorn="0.3.0.8" cy="25.92" stroke="white" id="connector4pin" r="1.98" stroke-width="2.16"/>
     </g>
    </g>
   </g>
  </g>
  <g partID="772681">
   <g transform="translate(64.1192,88.2064)">
    <g gorn="0.3" id="copper1">
     <g gorn="0.3.0" id="copper0">
      <rect width="3.96" x="2.34" y="2.34" fill="white" gorn="0.3.0.0" height="3.96" stroke="white" id="square" stroke-width="2.16"/>
      <circle fill="white" cx="4.32" gorn="0.3.0.1" cy="4.32" stroke="white" id="connector0pin" r="1.98" stroke-width="2.16"/>
      <circle fill="white" cx="25.92" gorn="0.3.0.2" cy="4.32" stroke="white" id="connector7pin" r="1.98" stroke-width="2.16"/>
      <circle fill="white" cx="4.32" gorn="0.3.0.3" cy="11.52" stroke="white" id="connector1pin" r="1.98" stroke-width="2.16"/>
      <rect fill="white" cx="332.5" gorn="0.3.0.4" cy="132.5" stroke="white" id="connector6pin" r="27.5" stroke-width="2.16"/>
      <circle fill="white" cx="4.32" gorn="0.3.0.5" cy="18.72" stroke="white" id="connector2pin" r="1.98" stroke-width="2.16"/>
      <circle fill="white" cx="25.92" gorn="0.3.0.6" cy="18.72" stroke="white" id="connector5pin" r="1.98" stroke-width="2.16"/>
      <circle fill="white" cx="4.32" gorn="0.3.0.7" cy="25.92" stroke="white" id="connector3pin" r="1.98" stroke-width="2.16"/>
      <circle fill="white" cx="25.92" gorn="0.3.0.8" cy="25.92" stroke="white" id="connector4pin" r="1.98" stroke-width="2.16"/>
     </g>
    </g>
   </g>
  </g>
  <g partID="772801">
   <g transform="translate(143.319,88.2064)">
    <g gorn="0.3" id="copper1">
     <g gorn="0.3.0" id="copper0">
      <rect width="3.96" x="2.34" y="2.34" fill="white" gorn="0.3.0.0" height="3.96" stroke="white" id="square" stroke-width="2.16"/>
      <circle fill="white" cx="4.32" gorn="0.3.0.1" cy="4.32" stroke="white" id="connector0pin" r="1.98" stroke-width="2.16"/>
      <circle fill="white" cx="25.92" gorn="0.3.0.2" cy="4.32" stroke="white" id="connector7pin" r="1.98" stroke-width="2.16"/>
      <circle fill="white" cx="4.32" gorn="0.3.0.3" cy="11.52" stroke="white" id="connector1pin" r="1.98" stroke-width="2.16"/>
      <rect fill="white" cx="332.5" gorn="0.3.0.4" cy="132.5" stroke="white" id="connector6pin" r="27.5" stroke-width="2.16"/>
      <circle fill="white" cx="4.32" gorn="0.3.0.5" cy="18.72" stroke="white" id="connector2pin" r="1.98" stroke-width="2.16"/>
      <circle fill="white" cx="25.92" gorn="0.3.0.6" cy="18.72" stroke="white" id="connector5pin" r="1.98" stroke-width="2.16"/>
      <circle fill="white" cx="4.32" gorn="0.3.0.7" cy="25.92" stroke="white" id="connector3pin" r="1.98" stroke-width="2.16"/>
      <circle fill="white" cx="25.92" gorn="0.3.0.8" cy="25.92" stroke="white" id="connector4pin" r="1.98" stroke-width="2.16"/>
     </g>
    </g>
   </g>
  </g>
  <g partID="772781">
   <g transform="translate(173.559,168.846)">
    <g transform="matrix(-1,0,0,-1,0,0)">
     <g gorn="0.3" id="copper1">
      <g gorn="0.3.0" id="copper0">
       <rect width="3.96" x="2.34" y="2.34" fill="white" gorn="0.3.0.0" height="3.96" stroke="white" id="square" stroke-width="2.16"/>
       <circle fill="white" cx="4.32" gorn="0.3.0.1" cy="4.32" stroke="white" id="connector0pin" r="1.98" stroke-width="2.16"/>
       <circle fill="white" cx="25.92" gorn="0.3.0.2" cy="4.32" stroke="white" id="connector7pin" r="1.98" stroke-width="2.16"/>
       <circle fill="white" cx="4.32" gorn="0.3.0.3" cy="11.52" stroke="white" id="connector1pin" r="1.98" stroke-width="2.16"/>
       <rect fill="white" cx="332.5" gorn="0.3.0.4" cy="132.5" stroke="white" id="connector6pin" r="27.5" stroke-width="2.16"/>
       <circle fill="white" cx="4.32" gorn="0.3.0.5" cy="18.72" stroke="white" id="connector2pin" r="1.98" stroke-width="2.16"/>
       <circle fill="white" cx="25.92" gorn="0.3.0.6" cy="18.72" stroke="white" id="connector5pin" r="1.98" stroke-width="2.16"/>
       <circle fill="white" cx="4.32" gorn="0.3.0.7" cy="25.92" stroke="white" id="connector3pin" r="1.98" stroke-width="2.16"/>
       <circle fill="white" cx="25.92" gorn="0.3.0.8" cy="25.92" stroke="white" id="connector4pin" r="1.98" stroke-width="2.16"/>
      </g>
     </g>
    </g>
   </g>
  </g>
  <g partID="772701">
   <g transform="translate(222.519,168.846)">
    <g transform="matrix(0,-1,1,0,0,0)">
     <g gorn="0.3" id="copper1">
      <g gorn="0.3.0" id="copper0">
       <rect width="3.96" x="2.34" y="2.34" fill="white" gorn="0.3.0.0" height="3.96" stroke="white" id="square" stroke-width="2.16"/>
       <circle fill="white" cx="4.32" gorn="0.3.0.1" cy="4.32" stroke="white" id="connector0pin" r="1.98" stroke-width="2.16"/>
       <circle fill="white" cx="25.92" gorn="0.3.0.2" cy="4.32" stroke="white" id="connector7pin" r="1.98" stroke-width="2.16"/>
       <circle fill="white" cx="4.32" gorn="0.3.0.3" cy="11.52" stroke="white" id="connector1pin" r="1.98" stroke-width="2.16"/>
       <rect fill="white" cx="332.5" gorn="0.3.0.4" cy="132.5" stroke="white" id="connector6pin" r="27.5" stroke-width="2.16"/>
       <circle fill="white" cx="4.32" gorn="0.3.0.5" cy="18.72" stroke="white" id="connector2pin" r="1.98" stroke-width="2.16"/>
       <circle fill="white" cx="25.92" gorn="0.3.0.6" cy="18.72" stroke="white" id="connector5pin" r="1.98" stroke-width="2.16"/>
       <circle fill="white" cx="4.32" gorn="0.3.0.7" cy="25.92" stroke="white" id="connector3pin" r="1.98" stroke-width="2.16"/>
       <circle fill="white" cx="25.92" gorn="0.3.0.8" cy="25.92" stroke="white" id="connector4pin" r="1.98" stroke-width="2.16"/>
      </g>
     </g>
    </g>
   </g>
  </g>
  <g partID="792571">
   <g transform="translate(159.339,125.43)">
    <g gorn="0.3.0" id="copper1">
     <rect width="3.96" x="0.72" y="1.116" fill="white" height="3.96" stroke="white" stroke-width="2.16"/>
     <circle fill="white" cx="2.7" gorn="0.3.0.1" cy="3.096" stroke="white" r="1.98" id="connector0pin" stroke-width="2.16"/>
     <circle fill="white" cx="31.5" gorn="0.3.0.2" cy="3.096" stroke="white" r="1.98" id="connector1pin" stroke-width="2.16"/>
    </g>
   </g>
  </g>
  <g partID="792881">
   <g transform="translate(123.339,125.43)">
    <g gorn="0.3.0" id="copper1">
     <rect width="3.96" x="0.72" y="1.116" fill="white" height="3.96" stroke="white" stroke-width="2.16"/>
     <circle fill="white" cx="2.7" gorn="0.3.0.1" cy="3.096" stroke="white" r="1.98" id="connector0pin" stroke-width="2.16"/>
     <circle fill="white" cx="31.5" gorn="0.3.0.2" cy="3.096" stroke="white" r="1.98" id="connector1pin" stroke-width="2.16"/>
    </g>
   </g>
  </g>
  <g partID="793621">
   <g transform="translate(17.4632,175.766)">
    <g id="copper1">
     <g id="copper0">
      <rect width="4.32" x="5.616" y="4.60063" fill="white" height="4.32" stroke="white" id="square" stroke-width="2.16"/>
      <circle fill="white" cx="7.776" cy="6.76063" stroke="white" id="connector0pin" r="2.16" stroke-width="2.16"/>
      <circle fill="white" cx="7.776" cy="16.6819" stroke="white" id="connector1pin" r="2.16" stroke-width="2.16"/>
      <circle fill="white" cx="7.776" cy="26.6031" stroke="white" id="connector2pin" r="2.16" stroke-width="2.16"/>
     </g>
    </g>
   </g>
  </g>
 </g>
</svg>
