<?xml version='1.0' encoding='UTF-8' standalone='no'?>
<!-- Created with Fritzing (http://www.fritzing.org/) -->
<svg xmlns="http://www.w3.org/2000/svg" width="4in" x="0in" version="1.2" y="0in"  height="3in" viewBox="0 0 288 216" baseProfile="tiny" xmlns:svg="http://www.w3.org/2000/svg">
 <g transform="matrix(-1, 0, 0, 1, 288, 0)">
  <g partID="19230">
   <g id="board">
    <rect width="287.424" x="0.288" y="0.288" fill="none" height="215.424" stroke="black" fill-opacity="0.5" id="boardoutline" stroke-width="0.5"/>
   </g>
  </g>
  <g partID="784241">
   <g transform="translate(148.536,50.2006)">
    <g  id="copper1">
     <circle fill="none" cx="6.30369"  cy="9.92581" connectorname="1" stroke="black" id="connector0pad" r="2.29039" stroke-width="1.17921"/>
     <path fill="black"  stroke="none" stroke-width="0" d="m3.42369,7.04581,5.76,0,0,5.76001,-5.76,0,0,-8.50395zM4.6029,9.92581a1.70079,1.70079,0,1,0,3.40158,0,1.70079,1.70079,0,1,0,-3.40158,0z"/>
     <circle fill="none" cx="16.7289"  cy="9.92581" connectorname="2" stroke="black" id="connector1pad" r="2.29039" stroke-width="1.17921"/>
     <circle fill="none" cx="27.1542"  cy="9.92581" connectorname="3" stroke="black" id="connector2pad" r="2.29039" stroke-width="1.17921"/>
     <g  id="copper0">
      <circle fill="none" cx="6.30369"  cy="9.92581" connectorname="1" stroke="black" id="connector0pad" r="2.29039" stroke-width="1.17921"/>
      <path fill="black"  stroke="none" stroke-width="0" d="m3.42369,7.04581,5.76,0,0,5.76001,-5.76,0,0,-8.50395zM4.6029,9.92581a1.70079,1.70079,0,1,0,3.40158,0,1.70079,1.70079,0,1,0,-3.40158,0z"/>
      <circle fill="none" cx="16.7289"  cy="9.92581" connectorname="2" stroke="black" id="connector1pad" r="2.29039" stroke-width="1.17921"/>
      <circle fill="none" cx="27.1542"  cy="9.92581" connectorname="3" stroke="black" id="connector2pad" r="2.29039" stroke-width="1.17921"/>
     </g>
    </g>
   </g>
  </g>
  <g partID="789981">
   <g transform="translate(75.004,70.184)">
    <g  id="copper1">
     <circle fill="none" cx="3.01733"  cy="3.01733" stroke="black" r="0.992124" id="connector0pin" stroke-width="0.850392"/>
    </g>
   </g>
  </g>
  <g partID="790031">
   <g transform="translate(85.6704,70.184)">
    <g  id="copper1">
     <circle fill="none" cx="3.01733"  cy="3.01733" stroke="black" r="0.992124" id="connector0pin" stroke-width="0.850392"/>
    </g>
   </g>
  </g>
  <g partID="685730">
   <g transform="translate(46.0056,96.2824)">
    <g transform="matrix(0,1,-1,0,0,0)">
     <g  id="copper1">
      <text x="18" y="6.48" fill="black" font-family="OCRA"  text-anchor="middle" xmlns:xml="http://www.w3.org/XML/1998/namespace" id="label" xml:space="preserve" stroke-width="0" font-size="7.2">Zones</text>
     </g>
    </g>
   </g>
  </g>
  <g partID="685780">
   <g transform="translate(46.0477,174.517)">
    <g transform="matrix(0,1,-1,0,0,0)">
     <g  id="copper1">
      <text x="18" y="6.48" fill="black" font-family="OCRA"  text-anchor="middle" xmlns:xml="http://www.w3.org/XML/1998/namespace" id="label" xml:space="preserve" stroke-width="0" font-size="7.2">24VAC</text>
     </g>
    </g>
   </g>
  </g>
  <g partID="789740">
   <g transform="translate(168.12,65.3915)">
    <g  id="copper1">
     <text x="7.97245" y="4.78347" fill="black" font-family="OCRA"  text-anchor="middle" xmlns:xml="http://www.w3.org/XML/1998/namespace" id="label" xml:space="preserve" stroke-width="0" font-size="5.31497">Z10</text>
    </g>
   </g>
  </g>
  <g partID="789720">
   <g transform="translate(144.743,65.5342)">
    <g  id="copper1">
     <text x="10.6299" y="4.78347" fill="black" font-family="OCRA"  text-anchor="middle" xmlns:xml="http://www.w3.org/XML/1998/namespace" id="label" xml:space="preserve" stroke-width="0" font-size="5.31497">Mstr</text>
    </g>
   </g>
  </g>
  <g partID="781170">
   <g transform="translate(11.3918,169.703)">
    <g transform="matrix(0,1,-1,0,0,0)">
     <g  id="copper1">
      <text x="21.8673" y="4.37345" fill="black" font-family="OCRA"  text-anchor="middle" xmlns:xml="http://www.w3.org/XML/1998/namespace" id="label" xml:space="preserve" stroke-width="0" font-size="4.85939">Com V+ V-</text>
     </g>
    </g>
   </g>
  </g>
  <g partID="685880">
   <g transform="translate(10.7776,47.188)">
    <g transform="matrix(0,1,-1,0,0,0)">
     <g  id="copper1">
      <text x="68.0314" y="4.37345" fill="black" font-family="OCRA"  text-anchor="middle" xmlns:xml="http://www.w3.org/XML/1998/namespace" id="label" xml:space="preserve" stroke-width="0" font-size="4.85938">1  2  3  4  5  6  7  8  9 10</text>
     </g>
    </g>
   </g>
  </g>
  <g partID="671320">
   <g transform="translate(-11.053,9.52293)">
    <g  id="copper1">
     <text x="90" y="6.48" fill="black" font-family="OCRA"  text-anchor="middle" xmlns:xml="http://www.w3.org/XML/1998/namespace" id="label" xml:space="preserve" stroke-width="0" font-size="7.2">Sprinkler Controller v1.4</text>
    </g>
   </g>
  </g>
  <g partID="671540">
   <g transform="translate(219.616,8.18693)">
    <g  id="copper1">
     <polygon fill="black" points="36.2796,8.57517,36.2796,8.90498,36.6094,8.90498,36.6094,8.57517"  stroke="none" stroke-width="0"/>
     <polygon fill="black" points="12.8628,8.90498,12.8628,9.23479,13.5224,9.23479,13.5224,8.90498"  stroke="none" stroke-width="0"/>
     <polygon fill="black" points="35.6199,8.90498,35.6199,9.23479,35.9498,9.23479,35.9498,8.90498"  stroke="none" stroke-width="0"/>
     <polygon fill="black" points="13.8522,9.23479,13.8522,9.56461,14.182,9.56461,14.182,9.23479"  stroke="none" stroke-width="0"/>
     <polygon fill="black" points="14.182,9.56461,14.182,9.89442,14.8416,9.89442,14.8416,9.56461"  stroke="none" stroke-width="0"/>
     <polygon fill="black" points="10.8839,2.3087,10.8839,2.63851,12.5329,2.63851,12.5329,2.3087"  stroke="none" stroke-width="0"/>
     <polygon fill="black" points="13.1926,2.3087,13.1926,2.63851,14.8416,2.63851,14.8416,2.3087"  stroke="none" stroke-width="0"/>
     <polygon fill="black" points="32.6516,2.3087,32.6516,2.63851,32.9814,2.63851,32.9814,2.3087"  stroke="none" stroke-width="0"/>
     <polygon fill="black" points="33.9709,2.3087,33.9709,2.63851,35.9498,2.63851,35.9498,2.3087"  stroke="none" stroke-width="0"/>
     <polygon fill="black" points="36.2796,2.3087,36.2796,2.63851,38.2585,2.63851,38.2585,2.3087"  stroke="none" stroke-width="0"/>
     <polygon fill="black" points="9.56461,2.63851,9.56461,2.96833,17.1503,2.96833,17.1503,2.63851"  stroke="none" stroke-width="0"/>
     <polygon fill="black" points="9.56461,2.63851,9.56461,2.96833,17.1503,2.96833,17.1503,2.63851"  stroke="none" stroke-width="0"/>
     <polygon fill="black" points="31.992,2.63851,31.992,2.96833,39.5777,2.96833,39.5777,2.63851"  stroke="none" stroke-width="0"/>
     <polygon fill="black" points="31.992,2.63851,31.992,2.96833,39.5777,2.96833,39.5777,2.63851"  stroke="none" stroke-width="0"/>
     <polygon fill="black" points="31.992,2.63851,31.992,2.96833,39.5777,2.96833,39.5777,2.63851"  stroke="none" stroke-width="0"/>
     <polygon fill="black" points="8.90498,2.96833,8.90498,3.29814,14.182,3.29814,14.182,3.62796,14.8416,3.62796,14.8416,3.95777,17.1503,3.95777,17.1503,4.28758,18.7994,4.28758,18.7994,4.6174,19.1292,4.6174,19.1292,4.94721,19.459,4.94721,19.459,5.27703,20.7783,5.27703,20.7783,5.60684,21.1081,5.60684,21.1081,5.93665,21.4379,5.93665,21.4379,6.26647,21.7677,6.26647,21.7677,6.9261,22.0976,6.9261,22.0976,7.25591,22.4274,7.25591,22.4274,7.91554,22.7572,7.91554,22.7572,8.90498,23.087,8.90498,23.087,9.23479,24.4063,9.23479,24.4063,8.90498,24.0764,8.90498,24.0764,7.91554,23.7466,7.91554,23.7466,7.25591,23.4168,7.25591,23.4168,6.59628,23.087,6.59628,23.087,5.93665,22.7572,5.93665,22.7572,5.60684,22.4274,5.60684,22.4274,5.27703,22.0976,5.27703,22.0976,4.94721,21.7677,4.94721,21.7677,4.6174,21.4379,4.6174,21.4379,4.28758,21.1081,4.28758,21.1081,3.95777,19.7889,3.95777,19.7889,3.62796,19.459,3.62796,19.459,3.29814,19.1292,3.29814,19.1292,2.96833"  stroke="none" stroke-width="0"/>
     <polygon fill="black" points="30.0131,2.96833,30.0131,3.29814,29.6833,3.29814,29.6833,3.62796,37.269,3.62796,37.269,3.95777,39.2479,3.95777,39.2479,4.28758,38.9181,4.28758,38.9181,4.6174,41.8864,4.6174,41.8864,4.94721,41.5566,4.94721,41.5566,5.27703,43.8653,5.27703,43.8653,5.93665,43.5355,5.93665,43.5355,6.59628,43.2057,6.59628,43.2057,7.58572,44.1951,7.58572,44.1951,7.91554,43.8653,7.91554,43.8653,8.24535,43.5355,8.24535,43.5355,8.57517,43.2057,8.57517,43.2057,8.90498,42.8759,8.90498,42.8759,9.23479,42.546,9.23479,42.546,9.56461,43.5355,9.56461,43.5355,9.89442,43.2057,9.89442,43.2057,10.5541,42.8759,10.5541,42.8759,10.8839,42.546,10.8839,42.546,11.2137,42.2162,11.2137,42.2162,11.5435,42.8759,11.5435,42.8759,11.8733,42.546,11.8733,42.546,12.2031,42.2162,12.2031,42.2162,12.5329,41.8864,12.5329,41.8864,12.8627,41.5566,12.8627,41.5566,13.1926,40.897,13.1926,40.897,13.5224,41.8864,13.5224,41.8864,13.8522,41.5566,13.8522,41.5566,14.182,40.897,14.182,40.897,14.5118,40.5672,14.5118,40.5672,14.8416,39.9075,14.8416,39.9075,15.1714,40.2373,15.1714,40.2373,15.8311,39.5777,15.8311,39.5777,16.1609,38.5883,16.1609,38.5883,16.4907,37.9286,16.4907,37.9286,16.8205,38.5883,16.8205,38.5883,17.1503,37.9286,17.1503,37.9286,17.4801,35.6199,17.4801,35.6199,17.81,35.9498,17.81,35.9498,18.1398,36.2796,18.1398,36.2796,18.4696,38.9181,18.4696,38.9181,18.1398,39.2479,18.1398,39.2479,17.81,39.5777,17.81,39.5777,17.4801,39.9075,17.4801,39.9075,17.1503,40.2373,17.1503,40.2373,16.8205,40.897,16.8205,40.897,16.4907,41.2268,16.4907,41.2268,16.1609,41.5566,16.1609,41.5566,15.5013,41.8864,15.5013,41.8864,15.1714,42.2162,15.1714,42.2162,14.8416,42.546,14.8416,42.546,14.5118,42.8759,14.5118,42.8759,14.182,43.2057,14.182,43.2057,13.1926,43.5355,13.1926,43.5355,12.8627,43.8653,12.8627,43.8653,12.2031,44.1951,12.2031,44.1951,10.8839,44.5249,10.8839,44.5249,10.2242,44.8547,10.2242,44.8547,8.57517,45.1846,8.57517,45.1846,7.58572,45.5144,7.58572,45.5144,7.25591,45.1846,7.25591,45.1846,6.59628,44.8547,6.59628,44.8547,6.26647,45.1846,6.26647,45.1846,4.6174,44.8547,4.6174,44.8547,4.28758,43.2057,4.28758,43.2057,3.95777,42.8759,3.95777,42.8759,3.62796,42.2162,3.62796,42.2162,3.29814,40.2373,3.29814,40.2373,2.96833"  stroke="none" stroke-width="0"/>
     <polygon fill="black" points="6.59628,3.29814,6.59628,3.62796,6.26647,3.62796,6.26647,3.95777,10.8839,3.95777,10.8839,4.28758,11.8733,4.28758,11.8733,4.6174,12.2031,4.6174,12.2031,3.95777,11.5435,3.95777,11.5435,3.62796,13.8522,3.62796,13.8522,3.29814"  stroke="none" stroke-width="0"/>
     <polygon fill="black" points="12.8628,3.62796,12.8628,3.95777,13.5224,3.95777,13.5224,4.28758,14.182,4.28758,14.182,3.62796"  stroke="none" stroke-width="0"/>
     <polygon fill="black" points="29.0237,3.62796,29.0237,3.95777,28.0342,3.95777,28.0342,4.28758,30.6727,4.28758,30.6727,4.94721,31.3324,4.94721,31.3324,4.6174,31.6622,4.6174,31.6622,4.28758,31.992,4.28758,31.992,3.95777,32.6516,3.95777,32.6516,3.62796"  stroke="none" stroke-width="0"/>
     <polygon fill="black" points="32.9814,3.62796,32.9814,3.95777,34.3007,3.95777,34.3007,3.62796"  stroke="none" stroke-width="0"/>
     <polygon fill="black" points="34.9603,3.62796,34.9603,3.95777,34.6305,3.95777,34.6305,4.28758,35.2901,4.28758,35.2901,3.95777,36.2796,3.95777,36.2796,3.62796"  stroke="none" stroke-width="0"/>
     <polygon fill="black" points="5.93666,3.95777,5.93666,4.28758,4.28759,4.28758,4.28759,4.6174,9.56461,4.6174,9.56461,4.94721,10.2242,4.94721,10.2242,4.6174,9.89443,4.6174,9.89443,3.95777"  stroke="none" stroke-width="0"/>
     <polygon fill="black" points="15.5013,3.95777,15.5013,4.28758,15.8311,4.28758,15.8311,4.6174,16.1609,4.6174,16.1609,3.95777"  stroke="none" stroke-width="0"/>
     <polygon fill="black" points="32.6516,3.95777,32.6516,4.6174,33.3112,4.6174,33.3112,4.28758,33.6411,4.28758,33.6411,3.95777"  stroke="none" stroke-width="0"/>
     <polygon fill="black" points="36.9392,3.95777,36.9392,4.6174,37.269,4.6174,37.269,4.28758,38.2585,4.28758,38.2585,3.95777"  stroke="none" stroke-width="0"/>
     <polygon fill="black" points="17.4802,4.28758,17.4802,4.6174,17.81,4.6174,17.81,5.27703,18.1398,5.27703,18.1398,4.28758"  stroke="none" stroke-width="0"/>
     <polygon fill="black" points="27.3746,4.28758,27.3746,4.6174,27.0448,4.6174,27.0448,5.27703,28.6938,5.27703,28.6938,5.93665,29.0237,5.93665,29.0237,5.60684,29.3535,5.60684,29.3535,5.27703,29.6833,5.27703,29.6833,4.94721,30.0131,4.94721,30.0131,4.6174,30.3429,4.6174,30.3429,4.28758"  stroke="none" stroke-width="0"/>
     <polygon fill="black" points="3.95777,4.6174,3.95777,5.27703,6.26647,5.27703,6.26647,5.60684,6.59628,5.60684,6.59628,5.27703,7.25591,5.27703,7.25591,4.6174"  stroke="none" stroke-width="0"/>
     <polygon fill="black" points="38.9181,4.6174,38.9181,4.94721,39.2479,4.94721,39.2479,4.6174"  stroke="none" stroke-width="0"/>
     <polygon fill="black" points="3.95777,5.27703,3.95777,6.9261,3.62796,6.9261,3.62796,8.24535,3.95777,8.24535,3.95777,9.89442,4.28759,9.89442,4.28759,10.5541,4.6174,10.5541,4.6174,10.8839,4.94721,10.8839,4.94721,12.5329,5.27703,12.5329,5.27703,12.8627,5.60684,12.8627,5.60684,13.5224,5.93666,13.5224,5.93666,14.5118,6.59628,14.5118,6.59628,14.8416,6.9261,14.8416,6.9261,15.1714,7.25591,15.1714,7.25591,15.8311,7.58573,15.8311,7.58573,16.4907,7.91554,16.4907,7.91554,16.8205,8.57517,16.8205,8.57517,17.1503,9.2348,17.1503,9.2348,17.81,9.56461,17.81,9.56461,18.1398,10.2242,18.1398,10.2242,18.4696,12.8628,18.4696,12.8628,18.1398,13.1926,18.1398,13.1926,17.4801,11.2137,17.4801,11.2137,17.1503,10.5541,17.1503,10.5541,16.8205,11.2137,16.8205,11.2137,16.4907,10.5541,16.4907,10.5541,16.1609,9.2348,16.1609,9.2348,15.8311,8.57517,15.8311,8.57517,15.1714,9.2348,15.1714,9.2348,14.8416,8.57517,14.8416,8.57517,14.5118,8.24536,14.5118,8.24536,14.182,7.58573,14.182,7.58573,13.8522,7.25591,13.8522,7.25591,13.5224,7.91554,13.5224,7.91554,13.1926,7.58573,13.1926,7.58573,12.8627,6.9261,12.8627,6.9261,12.2031,6.26647,12.2031,6.26647,11.5435,6.9261,11.5435,6.9261,11.2137,6.59628,11.2137,6.59628,10.8839,6.26647,10.8839,6.26647,10.5541,5.93666,10.5541,5.93666,10.2242,5.60684,10.2242,5.60684,9.89442,5.27703,9.89442,5.27703,9.56461,6.59628,9.56461,6.59628,9.23479,6.26647,9.23479,6.26647,8.90498,5.60684,8.90498,5.60684,8.24535,5.27703,8.24535,5.27703,7.91554,4.94721,7.91554,4.94721,7.58572,5.93666,7.58572,5.93666,6.9261,5.60684,6.9261,5.60684,6.26647,5.27703,6.26647,5.27703,5.60684,4.94721,5.60684,4.94721,5.27703"  stroke="none" stroke-width="0"/>
     <polygon fill="black" points="19.7889,5.27703,19.7889,5.60684,20.1187,5.60684,20.1187,5.93665,20.4485,5.93665,20.4485,5.27703"  stroke="none" stroke-width="0"/>
     <polygon fill="black" points="26.715,5.27703,26.715,5.60684,26.3851,5.60684,26.3851,5.93665,26.0553,5.93665,26.0553,6.59628,25.7255,6.59628,25.7255,6.9261,25.3957,6.9261,25.3957,7.58572,25.0659,7.58572,25.0659,8.57517,24.7361,8.57517,24.7361,9.23479,26.0553,9.23479,26.0553,8.57517,26.3851,8.57517,26.3851,7.58572,26.715,7.58572,26.715,7.25591,27.0448,7.25591,27.0448,6.59628,27.3746,6.59628,27.3746,6.26647,27.7044,6.26647,27.7044,5.93665,28.0342,5.93665,28.0342,5.60684,28.364,5.60684,28.364,5.27703"  stroke="none" stroke-width="0"/>
     <polygon fill="black" points="42.2162,5.27703,42.2162,5.60684,42.8759,5.60684,42.8759,5.27703"  stroke="none" stroke-width="0"/>
     <polygon fill="black" points="23.087,9.23479,23.087,9.56461,25.7255,9.56461,25.7255,9.23479"  stroke="none" stroke-width="0"/>
     <polygon fill="black" points="23.087,9.23479,23.087,9.56461,25.7255,9.56461,25.7255,9.23479"  stroke="none" stroke-width="0"/>
     <polygon fill="black" points="34.6305,9.23479,34.6305,9.56461,33.9709,9.56461,33.9709,9.89442,33.3112,9.89442,33.3112,10.2242,32.9814,10.2242,32.9814,10.5541,32.3218,10.5541,32.3218,10.8839,31.6622,10.8839,31.6622,11.2137,31.0025,11.2137,31.0025,11.5435,30.6727,11.5435,30.6727,11.8733,30.0131,11.8733,30.0131,12.2031,29.6833,12.2031,29.6833,12.5329,29.3535,12.5329,29.3535,12.8627,28.6938,12.8627,28.6938,13.1926,28.364,13.1926,28.364,13.5224,30.0131,13.5224,30.0131,13.1926,30.3429,13.1926,30.3429,12.8627,30.6727,12.8627,30.6727,12.5329,31.0025,12.5329,31.0025,12.2031,31.6622,12.2031,31.6622,11.8733,31.992,11.8733,31.992,11.5435,32.3218,11.5435,32.3218,11.2137,32.9814,11.2137,32.9814,10.8839,33.3112,10.8839,33.3112,10.5541,33.9709,10.5541,33.9709,10.2242,34.3007,10.2242,34.3007,9.89442,34.9603,9.89442,34.9603,9.56461,35.6199,9.56461,35.6199,9.23479"  stroke="none" stroke-width="0"/>
     <polygon fill="black" points="23.087,9.56461,23.087,9.89442,23.4168,9.89442,23.4168,11.5435,23.087,11.5435,23.087,12.2031,22.7572,12.2031,22.7572,12.8627,22.4274,12.8627,22.4274,13.1926,21.7677,13.1926,21.7677,13.5224,27.0448,13.5224,27.0448,13.1926,26.715,13.1926,26.715,12.8627,26.3851,12.8627,26.3851,12.5329,26.0553,12.5329,26.0553,11.8733,25.7255,11.8733,25.7255,9.56461"  stroke="none" stroke-width="0"/>
     <polygon fill="black" points="14.8416,9.89442,14.8416,10.2242,15.1715,10.2242,15.1715,10.5541,15.5013,10.5541,15.5013,10.8839,16.1609,10.8839,16.1609,11.2137,16.4907,11.2137,16.4907,11.5435,17.1503,11.5435,17.1503,11.8733,17.4802,11.8733,17.4802,12.2031,18.1398,12.2031,18.1398,12.5329,18.4696,12.5329,18.4696,12.8627,18.7994,12.8627,18.7994,13.1926,19.1292,13.1926,19.1292,13.5224,20.7783,13.5224,20.7783,13.1926,20.1187,13.1926,20.1187,12.8627,19.7889,12.8627,19.7889,12.5329,19.459,12.5329,19.459,12.2031,18.7994,12.2031,18.7994,11.8733,18.4696,11.8733,18.4696,11.5435,17.81,11.5435,17.81,11.2137,17.4802,11.2137,17.4802,10.8839,16.8205,10.8839,16.8205,10.5541,16.1609,10.5541,16.1609,10.2242,15.5013,10.2242,15.5013,9.89442"  stroke="none" stroke-width="0"/>
     <polygon fill="black" points="19.459,13.5224,19.459,13.8522,29.6833,13.8522,29.6833,13.5224"  stroke="none" stroke-width="0"/>
     <polygon fill="black" points="19.459,13.5224,19.459,13.8522,29.6833,13.8522,29.6833,13.5224"  stroke="none" stroke-width="0"/>
     <polygon fill="black" points="19.459,13.5224,19.459,13.8522,29.6833,13.8522,29.6833,13.5224"  stroke="none" stroke-width="0"/>
     <polygon fill="black" points="19.7889,13.8522,19.7889,14.182,20.1187,14.182,20.1187,14.5118,20.4485,14.5118,20.4485,15.1714,20.1187,15.1714,20.1187,15.8311,19.7889,15.8311,19.7889,16.1609,19.459,16.1609,19.459,16.4907,19.1292,16.4907,19.1292,16.8205,18.7994,16.8205,18.7994,17.1503,18.4696,17.1503,18.4696,17.4801,17.81,17.4801,17.81,17.81,16.8205,17.81,16.8205,18.1398,15.5013,18.1398,15.5013,18.4696,33.3112,18.4696,33.3112,18.1398,31.992,18.1398,31.992,17.81,31.3324,17.81,31.3324,17.4801,30.3429,17.4801,30.3429,17.1503,30.0131,17.1503,30.0131,16.8205,29.6833,16.8205,29.6833,16.4907,29.3535,16.4907,29.3535,15.8311,29.0237,15.8311,29.0237,15.1714,28.6938,15.1714,28.6938,14.182,29.3535,14.182,29.3535,13.8522"  stroke="none" stroke-width="0"/>
     <polygon fill="black" points="11.2137,18.4696,11.2137,18.7994,22.4274,18.7994,22.4274,18.4696"  stroke="none" stroke-width="0"/>
     <polygon fill="black" points="11.2137,18.4696,11.2137,18.7994,22.4274,18.7994,22.4274,18.4696"  stroke="none" stroke-width="0"/>
     <polygon fill="black" points="26.3851,18.4696,26.3851,18.7994,37.9286,18.7994,37.9286,18.4696"  stroke="none" stroke-width="0"/>
     <polygon fill="black" points="26.3851,18.4696,26.3851,18.7994,37.9286,18.7994,37.9286,18.4696"  stroke="none" stroke-width="0"/>
     <polygon fill="black" points="11.2137,18.7994,11.2137,19.1292,10.5541,19.1292,10.5541,19.459,9.89443,19.459,9.89443,19.7888,17.1503,19.7888,17.1503,21.1081,16.8205,21.1081,16.8205,21.4379,16.4907,21.4379,16.4907,22.0975,16.1609,22.0975,16.1609,22.4274,15.8311,22.4274,15.8311,22.7572,15.1715,22.7572,15.1715,23.087,14.8416,23.087,14.8416,23.4168,14.5118,23.4168,14.5118,23.7466,14.182,23.7466,14.182,24.0764,13.8522,24.0764,13.8522,24.4062,13.5224,24.4062,13.5224,24.7361,13.1926,24.7361,13.1926,25.0659,12.8628,25.0659,12.8628,25.3957,12.2031,25.3957,12.2031,25.7255,23.087,25.7255,23.087,25.3957,21.4379,25.3957,21.4379,25.0659,20.7783,25.0659,20.7783,24.7361,19.7889,24.7361,19.7889,24.4062,19.459,24.4062,19.459,24.0764,19.1292,24.0764,19.1292,23.7466,18.7994,23.7466,18.7994,23.4168,18.4696,23.4168,18.4696,22.4274,18.1398,22.4274,18.1398,21.7677,18.4696,21.7677,18.4696,21.1081,18.7994,21.1081,18.7994,20.7783,19.1292,20.7783,19.1292,20.4485,19.459,20.4485,19.459,20.1187,19.7889,20.1187,19.7889,19.7888,20.1187,19.7888,20.1187,19.459,20.7783,19.459,20.7783,19.1292,21.4379,19.1292,21.4379,18.7994"  stroke="none" stroke-width="0"/>
     <polygon fill="black" points="27.3746,18.7994,27.3746,19.1292,28.0342,19.1292,28.0342,19.459,28.6938,19.459,28.6938,19.7888,35.2901,19.7888,35.2901,20.1187,36.2796,20.1187,36.2796,20.4485,36.9392,20.4485,36.9392,20.7783,37.269,20.7783,37.269,21.1081,37.9286,21.1081,37.9286,21.4379,38.2585,21.4379,38.2585,21.7677,38.5883,21.7677,38.5883,22.0975,38.9181,22.0975,38.9181,22.4274,39.2479,22.4274,39.2479,22.7572,39.5777,22.7572,39.5777,23.4168,39.9075,23.4168,39.9075,24.0764,40.2373,24.0764,40.2373,25.0659,40.5672,25.0659,40.5672,28.0342,42.546,28.0342,42.546,27.7044,42.2162,27.7044,42.2162,25.0659,41.8864,25.0659,41.8864,24.0764,41.5566,24.0764,41.5566,23.087,41.2268,23.087,41.2268,22.7572,40.897,22.7572,40.897,22.0975,40.5672,22.0975,40.5672,21.7677,40.2373,21.7677,40.2373,21.1081,39.9075,21.1081,39.9075,20.7783,39.5777,20.7783,39.5777,20.4485,39.2479,20.4485,39.2479,20.1187,38.5883,20.1187,38.5883,19.7888,38.2585,19.7888,38.2585,19.459,37.9286,19.459,37.9286,19.1292,37.5988,19.1292,37.5988,18.7994"  stroke="none" stroke-width="0"/>
     <polygon fill="black" points="9.56461,19.7888,9.56461,20.1187,9.2348,20.1187,9.2348,20.4485,8.57517,20.4485,8.57517,21.1081,8.24536,21.1081,8.24536,21.4379,7.91554,21.4379,7.91554,21.7677,7.58573,21.7677,7.58573,22.4274,7.25591,22.4274,7.25591,22.7572,6.9261,22.7572,6.9261,23.4168,6.59628,23.4168,6.59628,24.4062,6.26647,24.4062,6.26647,25.7255,5.93666,25.7255,5.93666,28.0342,7.58573,28.0342,7.58573,25.3957,7.91554,25.3957,7.91554,24.4062,8.24536,24.4062,8.24536,23.7466,8.57517,23.7466,8.57517,23.087,8.90498,23.087,8.90498,22.7572,9.2348,22.7572,9.2348,22.4274,9.56461,22.4274,9.56461,21.7677,10.2242,21.7677,10.2242,21.4379,10.5541,21.4379,10.5541,21.1081,10.8839,21.1081,10.8839,20.7783,11.2137,20.7783,11.2137,20.4485,11.8733,20.4485,11.8733,20.1187,12.8628,20.1187,12.8628,19.7888"  stroke="none" stroke-width="0"/>
     <polygon fill="black" points="29.0237,19.7888,29.0237,20.1187,29.3535,20.1187,29.3535,20.4485,29.6833,20.4485,29.6833,20.7783,30.0131,20.7783,30.0131,21.1081,30.3429,21.1081,30.3429,21.7677,30.6727,21.7677,30.6727,23.087,30.3429,23.087,30.3429,23.7466,30.0131,23.7466,30.0131,24.0764,29.6833,24.0764,29.6833,24.4062,29.3535,24.4062,29.3535,24.7361,28.6938,24.7361,28.6938,25.0659,27.7044,25.0659,27.7044,25.3957,26.3851,25.3957,26.3851,25.7255,32.3218,25.7255,32.3218,26.0553,33.3112,26.0553,33.3112,26.3851,33.9709,26.3851,33.9709,26.7149,34.6305,26.7149,34.6305,27.0448,34.9603,27.0448,34.9603,27.3746,35.6199,27.3746,35.6199,27.7044,35.9498,27.7044,35.9498,28.0342,39.2479,28.0342,39.2479,27.7044,38.5883,27.7044,38.5883,27.3746,38.2585,27.3746,38.2585,27.0448,37.5988,27.0448,37.5988,26.7149,37.269,26.7149,37.269,26.3851,36.6094,26.3851,36.6094,26.0553,36.2796,26.0553,36.2796,25.7255,35.9498,25.7255,35.9498,25.3957,35.2901,25.3957,35.2901,25.0659,34.9603,25.0659,34.9603,24.7361,34.6305,24.7361,34.6305,24.4062,34.3007,24.4062,34.3007,24.0764,33.9709,24.0764,33.9709,23.7466,33.6411,23.7466,33.6411,23.4168,33.3112,23.4168,33.3112,23.087,32.9814,23.087,32.9814,22.7572,32.6516,22.7572,32.6516,22.4274,32.3218,22.4274,32.3218,22.0975,31.992,22.0975,31.992,21.7677,31.6622,21.7677,31.6622,21.4379,31.3324,21.4379,31.3324,20.7783,31.0025,20.7783,31.0025,19.7888"  stroke="none" stroke-width="0"/>
     <polygon fill="black" points="11.8733,25.7255,11.8733,26.0553,29.3535,26.0553,29.3535,25.7255"  stroke="none" stroke-width="0"/>
     <polygon fill="black" points="11.8733,25.7255,11.8733,26.0553,29.3535,26.0553,29.3535,25.7255"  stroke="none" stroke-width="0"/>
     <polygon fill="black" points="11.5435,26.0553,11.5435,26.3851,10.8839,26.3851,10.8839,26.7149,10.5541,26.7149,10.5541,27.0448,9.89443,27.0448,9.89443,27.3746,9.56461,27.3746,9.56461,27.7044,8.57517,27.7044,8.57517,28.0342,13.1926,28.0342,13.1926,27.7044,13.5224,27.7044,13.5224,27.3746,13.8522,27.3746,13.8522,27.0448,14.5118,27.0448,14.5118,26.7149,14.8416,26.7149,14.8416,26.3851,15.8311,26.3851,15.8311,26.0553"  stroke="none" stroke-width="0"/>
     <polygon fill="black" points="19.459,26.0553,19.459,26.3851,20.1187,26.3851,20.1187,26.7149,20.7783,26.7149,20.7783,27.0448,21.4379,27.0448,21.4379,27.3746,21.7677,27.3746,21.7677,28.0342,22.0976,28.0342,22.0976,28.364,22.4274,28.364,22.4274,28.6938,22.7572,28.6938,22.7572,29.6833,23.087,29.6833,23.087,31.0025,23.4168,31.0025,23.4168,32.6516,23.087,32.6516,23.087,34.3007,22.7572,34.3007,22.7572,35.2901,22.4274,35.2901,22.4274,35.9497,22.0976,35.9497,22.0976,36.2796,21.7677,36.2796,21.7677,36.6094,21.4379,36.6094,21.4379,37.269,21.1081,37.269,21.1081,37.5988,20.7783,37.5988,20.7783,37.9286,20.4485,37.9286,20.4485,38.2584,26.0553,38.2584,26.0553,38.5882,27.3746,38.5882,27.3746,38.9181,28.0342,38.9181,28.0342,39.2479,28.364,39.2479,28.364,39.5777,31.992,39.5777,31.992,39.2479,30.6727,39.2479,30.6727,38.9181,30.0131,38.9181,30.0131,38.5882,29.3535,38.5882,29.3535,38.2584,29.0237,38.2584,29.0237,37.9286,28.6938,37.9286,28.6938,37.5988,28.364,37.5988,28.364,37.269,28.0342,37.269,28.0342,36.9392,27.7044,36.9392,27.7044,36.6094,27.3746,36.6094,27.3746,36.2796,27.0448,36.2796,27.0448,35.6199,26.715,35.6199,26.715,34.9603,26.3851,34.9603,26.3851,34.3007,26.0553,34.3007,26.0553,33.3112,25.7255,33.3112,25.7255,29.6833,26.0553,29.6833,26.0553,28.6938,26.3851,28.6938,26.3851,28.364,26.715,28.364,26.715,27.7044,27.0448,27.7044,27.0448,27.3746,27.3746,27.3746,27.3746,27.0448,27.7044,27.0448,27.7044,26.7149,28.0342,26.7149,28.0342,26.3851,28.6938,26.3851,28.6938,26.0553"  stroke="none" stroke-width="0"/>
     <polygon fill="black" points="5.93666,28.0342,5.93666,28.364,12.5329,28.364,12.5329,28.0342"  stroke="none" stroke-width="0"/>
     <polygon fill="black" points="5.93666,28.0342,5.93666,28.364,12.5329,28.364,12.5329,28.0342"  stroke="none" stroke-width="0"/>
     <polygon fill="black" points="36.2796,28.0342,36.2796,28.364,42.546,28.364,42.546,28.0342"  stroke="none" stroke-width="0"/>
     <polygon fill="black" points="36.2796,28.0342,36.2796,28.364,42.546,28.364,42.546,28.0342"  stroke="none" stroke-width="0"/>
     <polygon fill="black" points="5.60684,28.364,5.60684,28.6938,5.27703,28.6938,5.27703,29.0236,4.94721,29.0236,4.94721,29.3535,4.6174,29.3535,4.6174,29.6833,7.58573,29.6833,7.58573,30.0131,7.91554,30.0131,7.91554,30.6727,8.24536,30.6727,8.24536,31.992,8.57517,31.992,8.57517,35.2901,8.24536,35.2901,8.24536,37.269,7.91554,37.269,7.91554,38.5882,7.58573,38.5882,7.58573,39.5777,7.25591,39.5777,7.25591,39.9075,15.1715,39.9075,15.1715,39.5777,13.8522,39.5777,13.8522,39.2479,13.1926,39.2479,13.1926,38.9181,12.5329,38.9181,12.5329,38.5882,12.2031,38.5882,12.2031,38.2584,11.8733,38.2584,11.8733,37.9286,11.5435,37.9286,11.5435,37.5988,11.2137,37.5988,11.2137,36.9392,10.8839,36.9392,10.8839,36.2796,10.5541,36.2796,10.5541,34.9603,10.2242,34.9603,10.2242,32.6516,10.5541,32.6516,10.5541,31.3323,10.8839,31.3323,10.8839,30.6727,11.2137,30.6727,11.2137,29.6833,11.5435,29.6833,11.5435,29.3535,11.8733,29.3535,11.8733,28.6938,12.5329,28.6938,12.5329,28.364"  stroke="none" stroke-width="0"/>
     <polygon fill="black" points="36.6094,28.364,36.6094,29.0236,36.9392,29.0236,36.9392,29.3535,41.2268,29.3535,41.2268,29.6833,41.8864,29.6833,41.8864,30.0131,42.2162,30.0131,42.2162,30.3429,42.8759,30.3429,42.8759,30.6727,43.2057,30.6727,43.2057,31.0025,43.5355,31.0025,43.5355,31.6622,43.8653,31.6622,43.8653,31.992,44.1951,31.992,44.1951,32.6516,44.5249,32.6516,44.5249,32.9814,44.8547,32.9814,44.8547,34.3007,45.1846,34.3007,45.1846,37.5988,44.8547,37.5988,44.8547,38.5882,44.5249,38.5882,44.5249,39.2479,44.1951,39.2479,44.1951,39.9075,43.8653,39.9075,43.8653,40.2373,43.5355,40.2373,43.5355,40.8969,42.8759,40.8969,42.8759,41.2268,45.1846,41.2268,45.1846,40.8969,45.5144,40.8969,45.5144,40.2373,45.8442,40.2373,45.8442,39.5777,46.174,39.5777,46.174,38.5882,46.5038,38.5882,46.5038,37.5988,46.8336,37.5988,46.8336,34.3007,46.5038,34.3007,46.5038,32.9814,46.174,32.9814,46.174,32.3218,45.8442,32.3218,45.8442,31.6622,45.5144,31.6622,45.5144,31.0025,45.1846,31.0025,45.1846,30.6727,44.8547,30.6727,44.8547,30.0131,44.5249,30.0131,44.5249,29.6833,44.1951,29.6833,44.1951,29.3535,43.8653,29.3535,43.8653,29.0236,43.2057,29.0236,43.2057,28.6938,42.8759,28.6938,42.8759,28.364"  stroke="none" stroke-width="0"/>
     <polygon fill="black" points="37.269,29.3535,37.269,30.0131,37.5988,30.0131,37.5988,30.6727,37.9286,30.6727,37.9286,31.6622,38.2585,31.6622,38.2585,35.9497,37.9286,35.9497,37.9286,36.6094,37.5988,36.6094,37.5988,37.269,37.269,37.269,37.269,37.5988,36.9392,37.5988,36.9392,37.9286,36.6094,37.9286,36.6094,38.2584,36.2796,38.2584,36.2796,38.5882,35.9498,38.5882,35.9498,38.9181,35.2901,38.9181,35.2901,39.2479,34.3007,39.2479,34.3007,39.5777,41.2268,39.5777,41.2268,39.2479,40.897,39.2479,40.897,38.2584,40.5672,38.2584,40.5672,36.9392,40.2373,36.9392,40.2373,34.9603,39.9075,34.9603,39.9075,30.6727,40.2373,30.6727,40.2373,29.6833,40.5672,29.6833,40.5672,29.3535"  stroke="none" stroke-width="0"/>
     <polygon fill="black" points="4.28759,29.6833,4.28759,30.0131,3.95777,30.0131,3.95777,30.3429,3.62796,30.3429,3.62796,30.6727,3.29814,30.6727,3.29814,31.3323,2.96833,31.3323,2.96833,31.6622,2.63851,31.6622,2.63851,32.3218,2.3087,32.3218,2.3087,32.9814,1.97889,32.9814,1.97889,33.9709,1.64907,33.9709,1.64907,38.2584,1.97889,38.2584,1.97889,39.2479,2.3087,39.2479,2.3087,39.9075,2.63851,39.9075,2.63851,40.5671,2.96833,40.5671,2.96833,41.2268,3.29814,41.2268,3.29814,41.5566,5.60684,41.5566,5.60684,41.2268,4.94721,41.2268,4.94721,40.5671,4.6174,40.5671,4.6174,40.2373,4.28759,40.2373,4.28759,39.5777,3.95777,39.5777,3.95777,39.2479,3.62796,39.2479,3.62796,38.2584,3.29814,38.2584,3.29814,33.9709,3.62796,33.9709,3.62796,33.3112,3.95777,33.3112,3.95777,32.3218,4.28759,32.3218,4.28759,31.992,4.6174,31.992,4.6174,31.6622,4.94721,31.6622,4.94721,31.3323,5.27703,31.3323,5.27703,31.0025,5.60684,31.0025,5.60684,30.6727,5.93666,30.6727,5.93666,30.3429,6.26647,30.3429,6.26647,30.0131,6.9261,30.0131,6.9261,29.6833"  stroke="none" stroke-width="0"/>
     <polygon fill="black" points="19.7889,38.2584,19.7889,38.5882,19.459,38.5882,19.459,38.9181,18.7994,38.9181,18.7994,39.2479,18.1398,39.2479,18.1398,39.5777,16.8205,39.5777,16.8205,39.9075,20.1187,39.9075,20.1187,39.5777,20.7783,39.5777,20.7783,39.2479,21.4379,39.2479,21.4379,38.9181,22.0976,38.9181,22.0976,38.5882,23.087,38.5882,23.087,38.2584"  stroke="none" stroke-width="0"/>
     <polygon fill="black" points="29.0237,39.5777,29.0237,39.9075,41.2268,39.9075,41.2268,39.5777"  stroke="none" stroke-width="0"/>
     <polygon fill="black" points="29.0237,39.5777,29.0237,39.9075,41.2268,39.9075,41.2268,39.5777"  stroke="none" stroke-width="0"/>
     <polygon fill="black" points="7.25591,39.9075,7.25591,40.2373,19.7889,40.2373,19.7889,39.9075"  stroke="none" stroke-width="0"/>
     <polygon fill="black" points="7.25591,39.9075,7.25591,40.2373,19.7889,40.2373,19.7889,39.9075"  stroke="none" stroke-width="0"/>
     <polygon fill="black" points="29.3535,39.9075,29.3535,40.2373,29.6833,40.2373,29.6833,40.5671,40.2373,40.5671,40.2373,40.8969,40.897,40.8969,40.897,41.2268,42.2162,41.2268,42.2162,40.8969,41.8864,40.8969,41.8864,40.5671,41.5566,40.5671,41.5566,39.9075"  stroke="none" stroke-width="0"/>
     <polygon fill="black" points="6.9261,40.2373,6.9261,40.5671,6.59628,40.5671,6.59628,41.2268,5.93666,41.2268,5.93666,41.5566,10.8839,41.5566,10.8839,41.8864,11.5435,41.8864,11.5435,42.2162,11.8733,42.2162,11.8733,42.546,12.5329,42.546,12.5329,42.8758,12.8628,42.8758,12.8628,43.2056,13.1926,43.2056,13.1926,43.5355,13.5224,43.5355,13.5224,43.8653,13.8522,43.8653,13.8522,44.1951,14.182,44.1951,14.182,44.5249,14.5118,44.5249,14.5118,44.8547,14.8416,44.8547,14.8416,45.1845,15.1715,45.1845,15.1715,45.8442,15.5013,45.8442,15.5013,46.174,15.8311,46.174,15.8311,46.8336,16.1609,46.8336,16.1609,47.4932,16.4907,47.4932,16.4907,48.4827,16.8205,48.4827,16.8205,50.7914,22.7572,50.7914,22.7572,50.4616,21.7677,50.4616,21.7677,50.1317,21.1081,50.1317,21.1081,49.8019,20.4485,49.8019,20.4485,49.4721,20.1187,49.4721,20.1187,49.1423,19.7889,49.1423,19.7889,48.8125,19.459,48.8125,19.459,48.4827,19.1292,48.4827,19.1292,48.1529,18.7994,48.1529,18.7994,47.823,18.4696,47.823,18.4696,47.1634,18.1398,47.1634,18.1398,46.174,17.81,46.174,17.81,42.8758,18.1398,42.8758,18.1398,42.2162,18.4696,42.2162,18.4696,41.5566,18.7994,41.5566,18.7994,40.8969,19.1292,40.8969,19.1292,40.5671,19.459,40.5671,19.459,40.2373"  stroke="none" stroke-width="0"/>
     <polygon fill="black" points="30.0131,40.5671,30.0131,40.8969,30.3429,40.8969,30.3429,41.5566,30.6727,41.5566,30.6727,41.8864,31.0025,41.8864,31.0025,42.8758,31.3324,42.8758,31.3324,46.174,31.0025,46.174,31.0025,46.8336,30.6727,46.8336,30.6727,47.4932,30.3429,47.4932,30.3429,48.1529,30.0131,48.1529,30.0131,48.4827,29.6833,48.4827,29.6833,48.8125,29.3535,48.8125,29.3535,49.1423,29.0237,49.1423,29.0237,49.4721,28.364,49.4721,28.364,49.8019,28.0342,49.8019,28.0342,50.1317,27.3746,50.1317,27.3746,50.4616,26.0553,50.4616,26.0553,50.7914,31.6622,50.7914,31.6622,48.8125,31.992,48.8125,31.992,47.4932,32.3218,47.4932,32.3218,46.5038,32.6516,46.5038,32.6516,46.174,32.9814,46.174,32.9814,45.5143,33.3112,45.5143,33.3112,44.8547,33.6411,44.8547,33.6411,44.5249,33.9709,44.5249,33.9709,43.8653,34.3007,43.8653,34.3007,43.5355,34.6305,43.5355,34.6305,43.2056,34.9603,43.2056,34.9603,42.8758,35.2901,42.8758,35.2901,42.546,35.6199,42.546,35.6199,42.2162,35.9498,42.2162,35.9498,41.8864,36.6094,41.8864,36.6094,41.5566,36.9392,41.5566,36.9392,41.2268,37.5988,41.2268,37.5988,40.8969,38.5883,40.8969,38.5883,40.5671"  stroke="none" stroke-width="0"/>
     <polygon fill="black" points="41.2268,41.2268,41.2268,41.5566,44.8547,41.5566,44.8547,41.2268"  stroke="none" stroke-width="0"/>
     <polygon fill="black" points="41.2268,41.2268,41.2268,41.5566,44.8547,41.5566,44.8547,41.2268"  stroke="none" stroke-width="0"/>
     <polygon fill="black" points="3.62796,41.5566,3.62796,41.8864,8.24536,41.8864,8.24536,41.5566"  stroke="none" stroke-width="0"/>
     <polygon fill="black" points="3.62796,41.5566,3.62796,41.8864,8.24536,41.8864,8.24536,41.5566"  stroke="none" stroke-width="0"/>
     <polygon fill="black" points="41.5566,41.5566,41.5566,42.2162,41.8864,42.2162,41.8864,43.5355,42.2162,43.5355,42.2162,46.174,41.8864,46.174,41.8864,47.4932,41.5566,47.4932,41.5566,48.4827,41.2268,48.4827,41.2268,49.1423,40.897,49.1423,40.897,49.4721,40.5672,49.4721,40.5672,50.1317,40.2373,50.1317,40.2373,50.4616,39.9075,50.4616,39.9075,50.7914,39.5777,50.7914,39.5777,51.1212,39.2479,51.1212,39.2479,51.451,38.5883,51.451,38.5883,51.7808,38.2585,51.7808,38.2585,52.1106,37.5988,52.1106,37.5988,52.4404,36.6094,52.4404,36.6094,52.7703,35.6199,52.7703,35.6199,53.1001,39.5777,53.1001,39.5777,52.7703,39.9075,52.7703,39.9075,52.4404,40.5672,52.4404,40.5672,52.1106,40.897,52.1106,40.897,51.7808,41.2268,51.7808,41.2268,51.451,41.5566,51.451,41.5566,50.7914,41.8864,50.7914,41.8864,50.4616,42.2162,50.4616,42.2162,49.8019,42.546,49.8019,42.546,49.4721,42.8759,49.4721,42.8759,48.8125,43.2057,48.8125,43.2057,47.823,43.5355,47.823,43.5355,46.174,43.8653,46.174,43.8653,43.8653,44.1951,43.8653,44.1951,42.546,44.5249,42.546,44.5249,41.5566"  stroke="none" stroke-width="0"/>
     <polygon fill="black" points="3.95777,41.8864,3.95777,42.8758,4.28759,42.8758,4.28759,44.1951,4.6174,44.1951,4.6174,44.8547,4.94721,44.8547,4.94721,45.8442,5.27703,45.8442,5.27703,47.4932,5.60684,47.4932,5.60684,48.4827,5.93666,48.4827,5.93666,49.1423,6.26647,49.1423,6.26647,49.8019,6.59628,49.8019,6.59628,50.4616,6.9261,50.4616,6.9261,50.7914,7.25591,50.7914,7.25591,51.1212,7.58573,51.1212,7.58573,51.7808,7.91554,51.7808,7.91554,52.1106,8.24536,52.1106,8.24536,52.4404,8.90498,52.4404,8.90498,52.7703,9.2348,52.7703,9.2348,53.1001,13.1926,53.1001,13.1926,52.7703,11.8733,52.7703,11.8733,52.4404,11.2137,52.4404,11.2137,52.1106,10.5541,52.1106,10.5541,51.7808,10.2242,51.7808,10.2242,51.451,9.56461,51.451,9.56461,51.1212,9.2348,51.1212,9.2348,50.7914,8.90498,50.7914,8.90498,50.4616,8.57517,50.4616,8.57517,50.1317,8.24536,50.1317,8.24536,49.4721,7.91554,49.4721,7.91554,48.8125,7.58573,48.8125,7.58573,48.1529,7.25591,48.1529,7.25591,47.4932,6.9261,47.4932,6.9261,45.1845,6.59628,45.1845,6.59628,44.8547,6.9261,44.8547,6.9261,42.8758,7.25591,42.8758,7.25591,42.2162,7.58573,42.2162,7.58573,41.8864"  stroke="none" stroke-width="0"/>
     <polygon fill="black" points="16.8205,50.7914,16.8205,51.1212,31.6622,51.1212,31.6622,50.7914"  stroke="none" stroke-width="0"/>
     <polygon fill="black" points="16.8205,50.7914,16.8205,51.1212,31.6622,51.1212,31.6622,50.7914"  stroke="none" stroke-width="0"/>
     <polygon fill="black" points="16.8205,51.1212,16.8205,51.7808,16.4907,51.7808,16.4907,52.1106,16.1609,52.1106,16.1609,52.4404,26.0553,52.4404,26.0553,52.7703,28.364,52.7703,28.364,53.1001,33.3112,53.1001,33.3112,52.7703,32.6516,52.7703,32.6516,52.4404,32.3218,52.4404,32.3218,52.1106,31.992,52.1106,31.992,51.451,31.6622,51.451,31.6622,51.1212"  stroke="none" stroke-width="0"/>
     <polygon fill="black" points="16.1609,52.4404,16.1609,52.7703,15.5013,52.7703,15.5013,53.1001,21.1081,53.1001,21.1081,52.7703,23.7466,52.7703,23.7466,52.4404"  stroke="none" stroke-width="0"/>
     <polygon fill="black" points="9.56461,53.1001,9.56461,53.4299,20.1187,53.4299,20.1187,53.1001"  stroke="none" stroke-width="0"/>
     <polygon fill="black" points="9.56461,53.1001,9.56461,53.4299,20.1187,53.4299,20.1187,53.1001"  stroke="none" stroke-width="0"/>
     <polygon fill="black" points="29.3535,53.1001,29.3535,53.4299,39.2479,53.4299,39.2479,53.1001"  stroke="none" stroke-width="0"/>
     <polygon fill="black" points="29.3535,53.1001,29.3535,53.4299,39.2479,53.4299,39.2479,53.1001"  stroke="none" stroke-width="0"/>
     <polygon fill="black" points="10.2242,53.4299,10.2242,53.7597,11.2137,53.7597,11.2137,54.0895,11.5435,54.0895,11.5435,54.4193,12.2031,54.4193,12.2031,54.7491,12.5329,54.7491,12.5329,55.079,13.1926,55.079,13.1926,55.4088,13.5224,55.4088,13.5224,55.7386,14.182,55.7386,14.182,56.0684,14.8416,56.0684,14.8416,56.3982,15.5013,56.3982,15.5013,56.728,16.1609,56.728,16.1609,57.0578,16.8205,57.0578,16.8205,57.3877,17.4802,57.3877,17.4802,57.7175,17.81,57.7175,17.81,58.0473,18.1398,58.0473,18.1398,58.3771,18.4696,58.3771,18.4696,58.7069,18.7994,58.7069,18.7994,59.0367,23.087,59.0367,23.087,58.7069,21.7677,58.7069,21.7677,58.3771,20.7783,58.3771,20.7783,58.0473,20.4485,58.0473,20.4485,57.7175,19.7889,57.7175,19.7889,57.3877,19.459,57.3877,19.459,57.0578,19.1292,57.0578,19.1292,56.728,18.4696,56.728,18.4696,56.0684,18.1398,56.0684,18.1398,55.7386,17.81,55.7386,17.81,54.7491,18.1398,54.7491,18.1398,54.0895,18.7994,54.0895,18.7994,53.7597,19.459,53.7597,19.459,53.4299"  stroke="none" stroke-width="0"/>
     <polygon fill="black" points="30.0131,53.4299,30.0131,53.7597,30.3429,53.7597,30.3429,54.0895,30.6727,54.0895,30.6727,54.4193,31.0025,54.4193,31.0025,55.7386,30.6727,55.7386,30.6727,56.0684,30.3429,56.0684,30.3429,56.3982,30.0131,56.3982,30.0131,56.728,29.6833,56.728,29.6833,57.0578,29.3535,57.0578,29.3535,57.3877,29.0237,57.3877,29.0237,57.7175,28.364,57.7175,28.364,58.0473,27.7044,58.0473,27.7044,58.3771,27.0448,58.3771,27.0448,58.7069,26.0553,58.7069,26.0553,59.0367,29.6833,59.0367,29.6833,58.7069,30.3429,58.7069,30.3429,58.3771,30.6727,58.3771,30.6727,58.0473,31.0025,58.0473,31.0025,57.7175,31.3324,57.7175,31.3324,57.3877,31.6622,57.3877,31.6622,57.0578,32.3218,57.0578,32.3218,56.728,32.9814,56.728,32.9814,56.3982,33.6411,56.3982,33.6411,56.0684,34.3007,56.0684,34.3007,55.7386,34.6305,55.7386,34.6305,55.4088,35.2901,55.4088,35.2901,55.079,35.9498,55.079,35.9498,54.7491,36.2796,54.7491,36.2796,54.4193,36.9392,54.4193,36.9392,54.0895,37.9286,54.0895,37.9286,53.7597,38.5883,53.7597,38.5883,53.4299"  stroke="none" stroke-width="0"/>
     <polygon fill="black" points="19.459,59.0367,19.459,59.3665,29.3535,59.3665,29.3535,59.0367"  stroke="none" stroke-width="0"/>
     <polygon fill="black" points="19.459,59.0367,19.459,59.3665,29.3535,59.3665,29.3535,59.0367"  stroke="none" stroke-width="0"/>
     <polygon fill="black" points="20.1187,59.3665,20.1187,59.6964,20.7783,59.6964,20.7783,60.0262,21.4379,60.0262,21.4379,60.356,23.087,60.356,23.087,60.6858,25.7255,60.6858,25.7255,60.356,27.0448,60.356,27.0448,60.0262,28.0342,60.0262,28.0342,59.6964,28.6938,59.6964,28.6938,59.3665"  stroke="none" stroke-width="0"/>
    </g>
   </g>
  </g>
  <g partID="677681">
   <g transform="translate(17.4632,63.2024)">
    <g id="copper1">
     <g id="copper0">
      <rect width="4.32" x="5.616" y="4.60063" fill="none" height="4.32" stroke="black" id="square" stroke-width="1.44"/>
      <circle fill="none" cx="7.776" cy="6.76063" stroke="black" id="connector0pin" r="2.16" stroke-width="1.44"/>
      <circle fill="none" cx="7.776" cy="16.6819" stroke="black" id="connector1pin" r="2.16" stroke-width="1.44"/>
      <circle fill="none" cx="7.776" cy="26.6031" stroke="black" id="connector2pin" r="2.16" stroke-width="1.44"/>
      <circle fill="none" cx="7.776" cy="36.5244" stroke="black" id="connector3pin" r="2.16" stroke-width="1.44"/>
      <circle fill="none" cx="7.776" cy="46.4457" stroke="black" id="connector4pin" r="2.16" stroke-width="1.44"/>
      <circle fill="none" cx="7.776" cy="56.3669" stroke="black" id="connector5pin" r="2.16" stroke-width="1.44"/>
      <circle fill="none" cx="7.776" cy="66.2882" stroke="black" id="connector6pin" r="2.16" stroke-width="1.44"/>
      <circle fill="none" cx="7.776" cy="76.2091" stroke="black" id="connector7pin" r="2.16" stroke-width="1.44"/>
      <circle fill="none" cx="7.776" cy="86.1307" stroke="black" id="connector8pin" r="2.16" stroke-width="1.44"/>
      <circle fill="none" cx="7.776" cy="96.0523" stroke="black" id="connector9pin" r="2.16" stroke-width="1.44"/>
     </g>
    </g>
   </g>
  </g>
  <g partID="67221">
   <g transform="translate(47.5872,49.9264)">
    <g gorn="0.1.1"  id="copper1">
     <g gorn="0.1.1.0"  id="copper0">
      <circle fill="none" cx="6.449" gorn="0.1.1.0.0"  cy="6.60199" stroke="black" id="connector1pin" r="2.477" stroke-width="1.5"/>
      <circle fill="none" cx="13.652" gorn="0.1.1.0.1"  cy="6.59999" stroke="black" id="connector27pin" r="2.475" stroke-width="1.5"/>
      <circle fill="none" cx="20.851" gorn="0.1.1.0.2"  cy="6.59999" stroke="black" id="connector5pin" r="2.475" stroke-width="1.5"/>
      <circle fill="none" cx="28.051" gorn="0.1.1.0.3"  cy="6.59999" stroke="black" id="connector7pin" r="2.475" stroke-width="1.5"/>
      <circle fill="none" cx="35.251" gorn="0.1.1.0.4"  cy="6.59999" stroke="black" id="connector9pin" r="2.475" stroke-width="1.5"/>
      <circle fill="none" cx="42.452" gorn="0.1.1.0.5"  cy="6.59999" stroke="black" id="connector11pin" r="2.475" stroke-width="1.5"/>
      <circle fill="none" cx="49.653" gorn="0.1.1.0.6"  cy="6.59999" stroke="black" id="connector28pin" r="2.475" stroke-width="1.5"/>
      <circle fill="none" cx="56.852" gorn="0.1.1.0.7"  cy="6.59999" stroke="black" id="connector15pin" r="2.475" stroke-width="1.5"/>
      <circle fill="none" cx="64.052" gorn="0.1.1.0.8"  cy="6.59999" stroke="black" id="connector17pin" r="2.475" stroke-width="1.5"/>
      <circle fill="none" cx="71.252" gorn="0.1.1.0.9"  cy="6.59999" stroke="black" id="connector29pin" r="2.475" stroke-width="1.5"/>
      <circle fill="none" cx="78.453" gorn="0.1.1.0.10"  cy="6.56399" stroke="black" id="connector21pin" r="2.475" stroke-width="1.5"/>
      <circle fill="none" cx="85.653" gorn="0.1.1.0.11"  cy="6.56399" stroke="black" id="connector23pin" r="2.475" stroke-width="1.5"/>
      <circle fill="none" cx="92.853" gorn="0.1.1.0.12"  cy="6.56399" stroke="black" id="connector25pin" r="2.475" stroke-width="1.5"/>
      <circle fill="none" cx="6.448" gorn="0.1.1.0.13"  cy="13.802" stroke="black" id="connector0pin" r="2.475" stroke-width="1.5"/>
      <circle fill="none" cx="13.572" gorn="0.1.1.0.14"  cy="13.802" stroke="black" id="connector2pin" r="2.475" stroke-width="1.5"/>
      <circle fill="none" cx="20.851" gorn="0.1.1.0.15"  cy="13.795" stroke="black" id="connector4pin" r="2.475" stroke-width="1.5"/>
      <circle fill="none" cx="28.051" gorn="0.1.1.0.16"  cy="13.795" stroke="black" id="connector6pin" r="2.475" stroke-width="1.5"/>
      <circle fill="none" cx="35.251" gorn="0.1.1.0.17"  cy="13.795" stroke="black" id="connector26pin" r="2.475" stroke-width="1.5"/>
      <circle fill="none" cx="42.451" gorn="0.1.1.0.18"  cy="13.795" stroke="black" id="connector10pin" r="2.475" stroke-width="1.5"/>
      <circle fill="none" cx="49.652" gorn="0.1.1.0.19"  cy="13.795" stroke="black" id="connector12pin" r="2.475" stroke-width="1.5"/>
      <circle fill="none" cx="56.852" gorn="0.1.1.0.20"  cy="13.795" stroke="black" id="connector14pin" r="2.475" stroke-width="1.5"/>
      <circle fill="none" cx="64.052" gorn="0.1.1.0.21"  cy="13.795" stroke="black" id="connector30pin" r="2.475" stroke-width="1.5"/>
      <circle fill="none" cx="71.252" gorn="0.1.1.0.22"  cy="13.795" stroke="black" id="connector18pin" r="2.475" stroke-width="1.5"/>
      <circle fill="none" cx="78.453" gorn="0.1.1.0.23"  cy="13.759" stroke="black" id="connector20pin" r="2.475" stroke-width="1.5"/>
      <circle fill="none" cx="85.653" gorn="0.1.1.0.24"  cy="13.759" stroke="black" id="connector22pin" r="2.475" stroke-width="1.5"/>
      <circle fill="none" cx="92.853" gorn="0.1.1.0.25"  cy="13.759" stroke="black" id="connector31pin" r="2.475" stroke-width="1.5"/>
     </g>
    </g>
   </g>
  </g>
  <g partID="772841">
   <g transform="translate(179.319,138.606)">
    <g gorn="0.3"  id="copper1">
     <g gorn="0.3.0"  id="copper0">
      <rect width="3.96" x="2.34" y="2.34" fill="none" gorn="0.3.0.0"  height="3.96" stroke="black" id="square" stroke-width="1.44"/>
      <circle fill="none" cx="4.32" gorn="0.3.0.1"  cy="4.32" stroke="black" id="connector0pin" r="1.98" stroke-width="1.44"/>
      <circle fill="none" cx="25.92" gorn="0.3.0.2"  cy="4.32" stroke="black" id="connector7pin" r="1.98" stroke-width="1.44"/>
      <circle fill="none" cx="4.32" gorn="0.3.0.3"  cy="11.52" stroke="black" id="connector1pin" r="1.98" stroke-width="1.44"/>
      <rect fill="black" cx="332.5" gorn="0.3.0.4"  cy="132.5" stroke="black" id="connector6pin" r="27.5" stroke-width="1.44"/>
      <circle fill="none" cx="4.32" gorn="0.3.0.5"  cy="18.72" stroke="black" id="connector2pin" r="1.98" stroke-width="1.44"/>
      <circle fill="none" cx="25.92" gorn="0.3.0.6"  cy="18.72" stroke="black" id="connector5pin" r="1.98" stroke-width="1.44"/>
      <circle fill="none" cx="4.32" gorn="0.3.0.7"  cy="25.92" stroke="black" id="connector3pin" r="1.98" stroke-width="1.44"/>
      <circle fill="none" cx="25.92" gorn="0.3.0.8"  cy="25.92" stroke="black" id="connector4pin" r="1.98" stroke-width="1.44"/>
     </g>
    </g>
   </g>
  </g>
  <g partID="772761">
   <g transform="translate(130.359,118.446)">
    <g transform="matrix(-1,0,0,-1,0,0)">
     <g gorn="0.3"  id="copper1">
      <g gorn="0.3.0"  id="copper0">
       <rect width="3.96" x="2.34" y="2.34" fill="none" gorn="0.3.0.0"  height="3.96" stroke="black" id="square" stroke-width="1.44"/>
       <circle fill="none" cx="4.32" gorn="0.3.0.1"  cy="4.32" stroke="black" id="connector0pin" r="1.98" stroke-width="1.44"/>
       <circle fill="none" cx="25.92" gorn="0.3.0.2"  cy="4.32" stroke="black" id="connector7pin" r="1.98" stroke-width="1.44"/>
       <circle fill="none" cx="4.32" gorn="0.3.0.3"  cy="11.52" stroke="black" id="connector1pin" r="1.98" stroke-width="1.44"/>
       <rect fill="black" cx="332.5" gorn="0.3.0.4"  cy="132.5" stroke="black" id="connector6pin" r="27.5" stroke-width="1.44"/>
       <circle fill="none" cx="4.32" gorn="0.3.0.5"  cy="18.72" stroke="black" id="connector2pin" r="1.98" stroke-width="1.44"/>
       <circle fill="none" cx="25.92" gorn="0.3.0.6"  cy="18.72" stroke="black" id="connector5pin" r="1.98" stroke-width="1.44"/>
       <circle fill="none" cx="4.32" gorn="0.3.0.7"  cy="25.92" stroke="black" id="connector3pin" r="1.98" stroke-width="1.44"/>
       <circle fill="none" cx="25.92" gorn="0.3.0.8"  cy="25.92" stroke="black" id="connector4pin" r="1.98" stroke-width="1.44"/>
      </g>
     </g>
    </g>
   </g>
  </g>
  <g partID="772721">
   <g transform="translate(222.519,118.446)">
    <g transform="matrix(0,-1,1,0,0,0)">
     <g gorn="0.3"  id="copper1">
      <g gorn="0.3.0"  id="copper0">
       <rect width="3.96" x="2.34" y="2.34" fill="none" gorn="0.3.0.0"  height="3.96" stroke="black" id="square" stroke-width="1.44"/>
       <circle fill="none" cx="4.32" gorn="0.3.0.1"  cy="4.32" stroke="black" id="connector0pin" r="1.98" stroke-width="1.44"/>
       <circle fill="none" cx="25.92" gorn="0.3.0.2"  cy="4.32" stroke="black" id="connector7pin" r="1.98" stroke-width="1.44"/>
       <circle fill="none" cx="4.32" gorn="0.3.0.3"  cy="11.52" stroke="black" id="connector1pin" r="1.98" stroke-width="1.44"/>
       <rect fill="black" cx="332.5" gorn="0.3.0.4"  cy="132.5" stroke="black" id="connector6pin" r="27.5" stroke-width="1.44"/>
       <circle fill="none" cx="4.32" gorn="0.3.0.5"  cy="18.72" stroke="black" id="connector2pin" r="1.98" stroke-width="1.44"/>
       <circle fill="none" cx="25.92" gorn="0.3.0.6"  cy="18.72" stroke="black" id="connector5pin" r="1.98" stroke-width="1.44"/>
       <circle fill="none" cx="4.32" gorn="0.3.0.7"  cy="25.92" stroke="black" id="connector3pin" r="1.98" stroke-width="1.44"/>
       <circle fill="none" cx="25.92" gorn="0.3.0.8"  cy="25.92" stroke="black" id="connector4pin" r="1.98" stroke-width="1.44"/>
      </g>
     </g>
    </g>
   </g>
  </g>
  <g partID="772741">
   <g transform="translate(94.3592,168.846)">
    <g transform="matrix(-1,0,0,-1,0,0)">
     <g gorn="0.3"  id="copper1">
      <g gorn="0.3.0"  id="copper0">
       <rect width="3.96" x="2.34" y="2.34" fill="none" gorn="0.3.0.0"  height="3.96" stroke="black" id="square" stroke-width="1.44"/>
       <circle fill="none" cx="4.32" gorn="0.3.0.1"  cy="4.32" stroke="black" id="connector0pin" r="1.98" stroke-width="1.44"/>
       <circle fill="none" cx="25.92" gorn="0.3.0.2"  cy="4.32" stroke="black" id="connector7pin" r="1.98" stroke-width="1.44"/>
       <circle fill="none" cx="4.32" gorn="0.3.0.3"  cy="11.52" stroke="black" id="connector1pin" r="1.98" stroke-width="1.44"/>
       <rect fill="black" cx="332.5" gorn="0.3.0.4"  cy="132.5" stroke="black" id="connector6pin" r="27.5" stroke-width="1.44"/>
       <circle fill="none" cx="4.32" gorn="0.3.0.5"  cy="18.72" stroke="black" id="connector2pin" r="1.98" stroke-width="1.44"/>
       <circle fill="none" cx="25.92" gorn="0.3.0.6"  cy="18.72" stroke="black" id="connector5pin" r="1.98" stroke-width="1.44"/>
       <circle fill="none" cx="4.32" gorn="0.3.0.7"  cy="25.92" stroke="black" id="connector3pin" r="1.98" stroke-width="1.44"/>
       <circle fill="none" cx="25.92" gorn="0.3.0.8"  cy="25.92" stroke="black" id="connector4pin" r="1.98" stroke-width="1.44"/>
      </g>
     </g>
    </g>
   </g>
  </g>
  <g partID="772821">
   <g transform="translate(209.559,118.446)">
    <g transform="matrix(-1,0,0,-1,0,0)">
     <g gorn="0.3"  id="copper1">
      <g gorn="0.3.0"  id="copper0">
       <rect width="3.96" x="2.34" y="2.34" fill="none" gorn="0.3.0.0"  height="3.96" stroke="black" id="square" stroke-width="1.44"/>
       <circle fill="none" cx="4.32" gorn="0.3.0.1"  cy="4.32" stroke="black" id="connector0pin" r="1.98" stroke-width="1.44"/>
       <circle fill="none" cx="25.92" gorn="0.3.0.2"  cy="4.32" stroke="black" id="connector7pin" r="1.98" stroke-width="1.44"/>
       <circle fill="none" cx="4.32" gorn="0.3.0.3"  cy="11.52" stroke="black" id="connector1pin" r="1.98" stroke-width="1.44"/>
       <rect fill="black" cx="332.5" gorn="0.3.0.4"  cy="132.5" stroke="black" id="connector6pin" r="27.5" stroke-width="1.44"/>
       <circle fill="none" cx="4.32" gorn="0.3.0.5"  cy="18.72" stroke="black" id="connector2pin" r="1.98" stroke-width="1.44"/>
       <circle fill="none" cx="25.92" gorn="0.3.0.6"  cy="18.72" stroke="black" id="connector5pin" r="1.98" stroke-width="1.44"/>
       <circle fill="none" cx="4.32" gorn="0.3.0.7"  cy="25.92" stroke="black" id="connector3pin" r="1.98" stroke-width="1.44"/>
       <circle fill="none" cx="25.92" gorn="0.3.0.8"  cy="25.92" stroke="black" id="connector4pin" r="1.98" stroke-width="1.44"/>
      </g>
     </g>
    </g>
   </g>
  </g>
  <g partID="772661">
   <g transform="translate(100.119,138.606)">
    <g gorn="0.3"  id="copper1">
     <g gorn="0.3.0"  id="copper0">
      <rect width="3.96" x="2.34" y="2.34" fill="none" gorn="0.3.0.0"  height="3.96" stroke="black" id="square" stroke-width="1.44"/>
      <circle fill="none" cx="4.32" gorn="0.3.0.1"  cy="4.32" stroke="black" id="connector0pin" r="1.98" stroke-width="1.44"/>
      <circle fill="none" cx="25.92" gorn="0.3.0.2"  cy="4.32" stroke="black" id="connector7pin" r="1.98" stroke-width="1.44"/>
      <circle fill="none" cx="4.32" gorn="0.3.0.3"  cy="11.52" stroke="black" id="connector1pin" r="1.98" stroke-width="1.44"/>
      <rect fill="black" cx="332.5" gorn="0.3.0.4"  cy="132.5" stroke="black" id="connector6pin" r="27.5" stroke-width="1.44"/>
      <circle fill="none" cx="4.32" gorn="0.3.0.5"  cy="18.72" stroke="black" id="connector2pin" r="1.98" stroke-width="1.44"/>
      <circle fill="none" cx="25.92" gorn="0.3.0.6"  cy="18.72" stroke="black" id="connector5pin" r="1.98" stroke-width="1.44"/>
      <circle fill="none" cx="4.32" gorn="0.3.0.7"  cy="25.92" stroke="black" id="connector3pin" r="1.98" stroke-width="1.44"/>
      <circle fill="none" cx="25.92" gorn="0.3.0.8"  cy="25.92" stroke="black" id="connector4pin" r="1.98" stroke-width="1.44"/>
     </g>
    </g>
   </g>
  </g>
  <g partID="772681">
   <g transform="translate(64.1192,88.2064)">
    <g gorn="0.3"  id="copper1">
     <g gorn="0.3.0"  id="copper0">
      <rect width="3.96" x="2.34" y="2.34" fill="none" gorn="0.3.0.0"  height="3.96" stroke="black" id="square" stroke-width="1.44"/>
      <circle fill="none" cx="4.32" gorn="0.3.0.1"  cy="4.32" stroke="black" id="connector0pin" r="1.98" stroke-width="1.44"/>
      <circle fill="none" cx="25.92" gorn="0.3.0.2"  cy="4.32" stroke="black" id="connector7pin" r="1.98" stroke-width="1.44"/>
      <circle fill="none" cx="4.32" gorn="0.3.0.3"  cy="11.52" stroke="black" id="connector1pin" r="1.98" stroke-width="1.44"/>
      <rect fill="black" cx="332.5" gorn="0.3.0.4"  cy="132.5" stroke="black" id="connector6pin" r="27.5" stroke-width="1.44"/>
      <circle fill="none" cx="4.32" gorn="0.3.0.5"  cy="18.72" stroke="black" id="connector2pin" r="1.98" stroke-width="1.44"/>
      <circle fill="none" cx="25.92" gorn="0.3.0.6"  cy="18.72" stroke="black" id="connector5pin" r="1.98" stroke-width="1.44"/>
      <circle fill="none" cx="4.32" gorn="0.3.0.7"  cy="25.92" stroke="black" id="connector3pin" r="1.98" stroke-width="1.44"/>
      <circle fill="none" cx="25.92" gorn="0.3.0.8"  cy="25.92" stroke="black" id="connector4pin" r="1.98" stroke-width="1.44"/>
     </g>
    </g>
   </g>
  </g>
  <g partID="772801">
   <g transform="translate(143.319,88.2064)">
    <g gorn="0.3"  id="copper1">
     <g gorn="0.3.0"  id="copper0">
      <rect width="3.96" x="2.34" y="2.34" fill="none" gorn="0.3.0.0"  height="3.96" stroke="black" id="square" stroke-width="1.44"/>
      <circle fill="none" cx="4.32" gorn="0.3.0.1"  cy="4.32" stroke="black" id="connector0pin" r="1.98" stroke-width="1.44"/>
      <circle fill="none" cx="25.92" gorn="0.3.0.2"  cy="4.32" stroke="black" id="connector7pin" r="1.98" stroke-width="1.44"/>
      <circle fill="none" cx="4.32" gorn="0.3.0.3"  cy="11.52" stroke="black" id="connector1pin" r="1.98" stroke-width="1.44"/>
      <rect fill="black" cx="332.5" gorn="0.3.0.4"  cy="132.5" stroke="black" id="connector6pin" r="27.5" stroke-width="1.44"/>
      <circle fill="none" cx="4.32" gorn="0.3.0.5"  cy="18.72" stroke="black" id="connector2pin" r="1.98" stroke-width="1.44"/>
      <circle fill="none" cx="25.92" gorn="0.3.0.6"  cy="18.72" stroke="black" id="connector5pin" r="1.98" stroke-width="1.44"/>
      <circle fill="none" cx="4.32" gorn="0.3.0.7"  cy="25.92" stroke="black" id="connector3pin" r="1.98" stroke-width="1.44"/>
      <circle fill="none" cx="25.92" gorn="0.3.0.8"  cy="25.92" stroke="black" id="connector4pin" r="1.98" stroke-width="1.44"/>
     </g>
    </g>
   </g>
  </g>
  <g partID="772781">
   <g transform="translate(173.559,168.846)">
    <g transform="matrix(-1,0,0,-1,0,0)">
     <g gorn="0.3"  id="copper1">
      <g gorn="0.3.0"  id="copper0">
       <rect width="3.96" x="2.34" y="2.34" fill="none" gorn="0.3.0.0"  height="3.96" stroke="black" id="square" stroke-width="1.44"/>
       <circle fill="none" cx="4.32" gorn="0.3.0.1"  cy="4.32" stroke="black" id="connector0pin" r="1.98" stroke-width="1.44"/>
       <circle fill="none" cx="25.92" gorn="0.3.0.2"  cy="4.32" stroke="black" id="connector7pin" r="1.98" stroke-width="1.44"/>
       <circle fill="none" cx="4.32" gorn="0.3.0.3"  cy="11.52" stroke="black" id="connector1pin" r="1.98" stroke-width="1.44"/>
       <rect fill="black" cx="332.5" gorn="0.3.0.4"  cy="132.5" stroke="black" id="connector6pin" r="27.5" stroke-width="1.44"/>
       <circle fill="none" cx="4.32" gorn="0.3.0.5"  cy="18.72" stroke="black" id="connector2pin" r="1.98" stroke-width="1.44"/>
       <circle fill="none" cx="25.92" gorn="0.3.0.6"  cy="18.72" stroke="black" id="connector5pin" r="1.98" stroke-width="1.44"/>
       <circle fill="none" cx="4.32" gorn="0.3.0.7"  cy="25.92" stroke="black" id="connector3pin" r="1.98" stroke-width="1.44"/>
       <circle fill="none" cx="25.92" gorn="0.3.0.8"  cy="25.92" stroke="black" id="connector4pin" r="1.98" stroke-width="1.44"/>
      </g>
     </g>
    </g>
   </g>
  </g>
  <g partID="772701">
   <g transform="translate(222.519,168.846)">
    <g transform="matrix(0,-1,1,0,0,0)">
     <g gorn="0.3"  id="copper1">
      <g gorn="0.3.0"  id="copper0">
       <rect width="3.96" x="2.34" y="2.34" fill="none" gorn="0.3.0.0"  height="3.96" stroke="black" id="square" stroke-width="1.44"/>
       <circle fill="none" cx="4.32" gorn="0.3.0.1"  cy="4.32" stroke="black" id="connector0pin" r="1.98" stroke-width="1.44"/>
       <circle fill="none" cx="25.92" gorn="0.3.0.2"  cy="4.32" stroke="black" id="connector7pin" r="1.98" stroke-width="1.44"/>
       <circle fill="none" cx="4.32" gorn="0.3.0.3"  cy="11.52" stroke="black" id="connector1pin" r="1.98" stroke-width="1.44"/>
       <rect fill="black" cx="332.5" gorn="0.3.0.4"  cy="132.5" stroke="black" id="connector6pin" r="27.5" stroke-width="1.44"/>
       <circle fill="none" cx="4.32" gorn="0.3.0.5"  cy="18.72" stroke="black" id="connector2pin" r="1.98" stroke-width="1.44"/>
       <circle fill="none" cx="25.92" gorn="0.3.0.6"  cy="18.72" stroke="black" id="connector5pin" r="1.98" stroke-width="1.44"/>
       <circle fill="none" cx="4.32" gorn="0.3.0.7"  cy="25.92" stroke="black" id="connector3pin" r="1.98" stroke-width="1.44"/>
       <circle fill="none" cx="25.92" gorn="0.3.0.8"  cy="25.92" stroke="black" id="connector4pin" r="1.98" stroke-width="1.44"/>
      </g>
     </g>
    </g>
   </g>
  </g>
  <g partID="792571">
   <g transform="translate(159.339,125.43)">
    <g gorn="0.3.0"  id="copper1">
     <rect width="3.96" x="0.72" y="1.116" fill="none"  height="3.96" stroke="black" stroke-width="1.44"/>
     <circle fill="none" cx="2.7" gorn="0.3.0.1"  cy="3.096" stroke="black" r="1.98" id="connector0pin" stroke-width="1.44"/>
     <circle fill="none" cx="31.5" gorn="0.3.0.2"  cy="3.096" stroke="black" r="1.98" id="connector1pin" stroke-width="1.44"/>
    </g>
   </g>
  </g>
  <g partID="792881">
   <g transform="translate(123.339,125.43)">
    <g gorn="0.3.0"  id="copper1">
     <rect width="3.96" x="0.72" y="1.116" fill="none"  height="3.96" stroke="black" stroke-width="1.44"/>
     <circle fill="none" cx="2.7" gorn="0.3.0.1"  cy="3.096" stroke="black" r="1.98" id="connector0pin" stroke-width="1.44"/>
     <circle fill="none" cx="31.5" gorn="0.3.0.2"  cy="3.096" stroke="black" r="1.98" id="connector1pin" stroke-width="1.44"/>
    </g>
   </g>
  </g>
  <g partID="793621">
   <g transform="translate(17.4632,175.766)">
    <g id="copper1">
     <g id="copper0">
      <rect width="4.32" x="5.616" y="4.60063" fill="none" height="4.32" stroke="black" id="square" stroke-width="1.44"/>
      <circle fill="none" cx="7.776" cy="6.76063" stroke="black" id="connector0pin" r="2.16" stroke-width="1.44"/>
      <circle fill="none" cx="7.776" cy="16.6819" stroke="black" id="connector1pin" r="2.16" stroke-width="1.44"/>
      <circle fill="none" cx="7.776" cy="26.6031" stroke="black" id="connector2pin" r="2.16" stroke-width="1.44"/>
     </g>
    </g>
   </g>
  </g>
  <g partID="788970">
   <line stroke="black" stroke-linecap="round" y1="149.227" x1="181.786" y2="146.606" stroke-width="1.728" x2="176.386"/>
  </g>
  <g partID="788960">
   <line stroke="black" stroke-linecap="round" y1="146.606" x1="176.386" y2="85.4153" stroke-width="1.728" x2="176.528"/>
  </g>
  <g partID="795240">
   <line stroke="black" stroke-linecap="round" y1="85.4153" x1="176.528" y2="74.5708" stroke-width="1.728" x2="165.684"/>
  </g>
  <g partID="795400">
   <line stroke="black" stroke-linecap="round" y1="74.5708" x1="165.684" y2="62.6261" stroke-width="1.728" x2="165.337"/>
  </g>
  <g partID="788460">
   <line stroke="black" stroke-linecap="round" y1="45.7708" x1="162.128" y2="45.7" stroke-width="1.728" x2="133.293"/>
  </g>
  <g partID="788410">
   <line stroke="black" stroke-linecap="round" y1="45.7" x1="133.293" y2="53.9654" stroke-width="1.728" x2="133.252"/>
  </g>
  <g partID="788360">
   <line stroke="black" stroke-linecap="round" y1="58.3085" x1="173.972" y2="45.7708" stroke-width="1.728" x2="162.128"/>
  </g>
  <g partID="788680">
   <line stroke="black" stroke-linecap="round" y1="71.8481" x1="88.8805" y2="66.2211" stroke-width="1.728" x2="89.6821"/>
  </g>
  <g partID="781290">
   <line stroke="black" stroke-linecap="round" y1="71.8756" x1="77.6881" y2="66.1702" stroke-width="1.728" x2="76.2538"/>
  </g>
  <g partID="770570">
   <line stroke="black" stroke-linecap="round" y1="150.126" x1="216.096" y2="139.383" stroke-width="1.728" x2="216.096"/>
  </g>
  <g partID="770450">
   <line stroke="black" stroke-linecap="round" y1="121.326" x1="201.696" y2="117.806" stroke-width="1.728" x2="198.146"/>
  </g>
  <g partID="770420">
   <line stroke="black" stroke-linecap="round" y1="49.3265" x1="104.554" y2="54.0017" stroke-width="1.728" x2="104.479"/>
  </g>
  <g partID="770390">
   <line stroke="black" stroke-linecap="round" y1="49.3267" x1="111.64" y2="54.0014" stroke-width="1.728" x2="111.639"/>
  </g>
  <g partID="694470">
   <line stroke="black" stroke-linecap="round" y1="27.8408" x1="118.954" y2="49.3265" stroke-width="1.728" x2="104.554"/>
  </g>
  <g partID="694480">
   <line stroke="black" stroke-linecap="round" y1="106" x1="207.079" y2="103.3" stroke-width="1.728" x2="212.439"/>
  </g>
  <g partID="695810">
   <line stroke="black" stroke-linecap="round" y1="157.441" x1="230.496" y2="157.441" stroke-width="1.728" x2="223.182"/>
  </g>
  <g partID="695760">
   <line stroke="black" stroke-linecap="round" y1="157.441" x1="223.182" y2="150.127" stroke-width="1.728" x2="216.096"/>
  </g>
  <g partID="695660">
   <line stroke="black" stroke-linecap="round" y1="139.383" x1="216.096" y2="121.433" stroke-width="1.728" x2="194.519"/>
  </g>
  <g partID="695540">
   <line stroke="black" stroke-linecap="round" y1="117.806" x1="198.146" y2="60.2064" stroke-width="1.728" x2="198.146"/>
  </g>
  <g partID="695360">
   <line stroke="black" stroke-linecap="round" y1="121.433" x1="194.519" y2="63.8328" stroke-width="1.728" x2="194.519"/>
  </g>
  <g partID="695310">
   <line stroke="black" stroke-linecap="round" y1="63.8328" x1="194.519" y2="42.2153" stroke-width="1.728" x2="165.684"/>
  </g>
  <g partID="695210">
   <line stroke="black" stroke-linecap="round" y1="162.684" x1="233.118" y2="157.441" stroke-width="1.728" x2="230.496"/>
  </g>
  <g partID="695130">
   <line stroke="black" stroke-linecap="round" y1="121.326" x1="230.496" y2="121.326" stroke-width="1.728" x2="201.696"/>
  </g>
  <g partID="695080">
   <line stroke="black" stroke-linecap="round" y1="60.2064" x1="198.146" y2="38.482" stroke-width="1.728" x2="169.239"/>
  </g>
  <g partID="694980">
   <line stroke="black" stroke-linecap="round" y1="38.482" x1="169.239" y2="38.482" stroke-width="1.728" x2="118.928"/>
  </g>
  <g partID="694930">
   <line stroke="black" stroke-linecap="round" y1="115.975" x1="233.13" y2="121.326" stroke-width="1.728" x2="230.496"/>
  </g>
  <g partID="694920">
   <line stroke="black" stroke-linecap="round" y1="38.482" x1="118.928" y2="49.3267" stroke-width="1.728" x2="111.64"/>
  </g>
  <g partID="694680">
   <line stroke="black" stroke-linecap="round" y1="103.3" x1="212.439" y2="63.7264" stroke-width="1.728" x2="212.439"/>
  </g>
  <g partID="694580">
   <line stroke="black" stroke-linecap="round" y1="63.7264" x1="212.439" y2="27.8408" stroke-width="1.728" x2="162.154"/>
  </g>
  <g partID="694530">
   <line stroke="black" stroke-linecap="round" y1="27.8408" x1="162.154" y2="27.8408" stroke-width="1.728" x2="118.954"/>
  </g>
  <g partID="770810">
   <line stroke="black" stroke-linecap="round" y1="42.2408" x1="129.696" y2="49.3265" stroke-width="1.728" x2="126.039"/>
  </g>
  <g partID="695260">
   <line stroke="black" stroke-linecap="round" y1="42.2153" x1="165.684" y2="42.2408" stroke-width="1.728" x2="129.696"/>
  </g>
  <g partID="695200">
   <line stroke="black" stroke-linecap="round" y1="49.3265" x1="126.039" y2="53.9654" stroke-width="1.728" x2="126.04"/>
  </g>
  <g partID="701290">
   <line stroke="black" stroke-linecap="round" y1="124.983" x1="255.639" y2="157.212" stroke-width="1.728" x2="255.639"/>
  </g>
  <g partID="701260">
   <line stroke="black" stroke-linecap="round" y1="157.212" x1="255.639" y2="163.059" stroke-width="1.728" x2="249.884"/>
  </g>
  <g partID="701230">
   <line stroke="black" stroke-linecap="round" y1="115.843" x1="249.578" y2="124.983" stroke-width="1.728" x2="255.639"/>
  </g>
  <g partID="770630">
   <line stroke="black" stroke-linecap="round" y1="135.726" x1="115.195" y2="88.8696" stroke-width="1.728" x2="115.296"/>
  </g>
  <g partID="770600">
   <line stroke="black" stroke-linecap="round" y1="88.8696" x1="115.296" y2="81.8597" stroke-width="1.728" x2="108.173"/>
  </g>
  <g partID="706420">
   <line stroke="black" stroke-linecap="round" y1="153.783" x1="162.154" y2="143.04" stroke-width="1.728" x2="162.154"/>
  </g>
  <g partID="706350">
   <line stroke="black" stroke-linecap="round" y1="143.04" x1="162.154" y2="135.726" stroke-width="1.728" x2="154.839"/>
  </g>
  <g partID="706280">
   <line stroke="black" stroke-linecap="round" y1="135.726" x1="154.839" y2="135.726" stroke-width="1.728" x2="115.195"/>
  </g>
  <g partID="706210">
   <line stroke="black" stroke-linecap="round" y1="81.8597" x1="108.173" y2="81.86" stroke-width="1.728" x2="79.3728"/>
  </g>
  <g partID="781260">
   <line stroke="black" stroke-linecap="round" y1="74.5424" x1="68.4392" y2="66.2464" stroke-width="1.728" x2="68.4384"/>
  </g>
  <g partID="706140">
   <line stroke="black" stroke-linecap="round" y1="81.86" x1="79.3728" y2="74.5424" stroke-width="1.728" x2="68.4392"/>
  </g>
  <g partID="705730">
   <line stroke="black" stroke-linecap="round" y1="156.405" x1="167.397" y2="153.783" stroke-width="1.728" x2="162.154"/>
  </g>
  <g partID="708360">
   <line stroke="black" stroke-linecap="round" y1="146.47" x1="97.2392" y2="139.384" stroke-width="1.728" x2="97.2392"/>
  </g>
  <g partID="708110">
   <line stroke="black" stroke-linecap="round" y1="139.383" x1="97.2392" y2="114.24" stroke-width="1.728" x2="79.1821"/>
  </g>
  <g partID="707980">
   <line stroke="black" stroke-linecap="round" y1="114.24" x1="79.1821" y2="96.184" stroke-width="1.728" x2="79.1824"/>
  </g>
  <g partID="781230">
   <line stroke="black" stroke-linecap="round" y1="81.7104" x1="61.2712" y2="66.2533" stroke-width="1.728" x2="61.1749"/>
  </g>
  <g partID="792160">
   <line stroke="black" stroke-linecap="round" y1="81.7104" x1="68.4392" y2="81.7104" stroke-width="1.728" x2="61.2712"/>
  </g>
  <g partID="707850">
   <line stroke="black" stroke-linecap="round" y1="96.184" x1="79.1824" y2="81.7104" stroke-width="1.728" x2="68.4392"/>
  </g>
  <g partID="707720">
   <line stroke="black" stroke-linecap="round" y1="149.194" x1="102.603" y2="146.47" stroke-width="1.728" x2="97.2392"/>
  </g>
  <g partID="791750">
   <line stroke="black" stroke-linecap="round" y1="171.815" x1="169.239" y2="166.586" stroke-width="1.728" x2="169.239"/>
  </g>
  <g partID="770540">
   <line stroke="black" stroke-linecap="round" y1="171.841" x1="219.754" y2="171.815" stroke-width="1.728" x2="169.239"/>
  </g>
  <g partID="770480">
   <line stroke="black" stroke-linecap="round" y1="166.006" x1="225.406" y2="171.841" stroke-width="1.728" x2="219.754"/>
  </g>
  <g partID="770090">
   <line stroke="black" stroke-linecap="round" y1="141.278" x1="88.8032" y2="115.774" stroke-width="1.728" x2="69.6752"/>
  </g>
  <g partID="781350">
   <line stroke="black" stroke-linecap="round" y1="78.1264" x1="111.639" y2="78.1264" stroke-width="1.728" x2="97.2392"/>
  </g>
  <g partID="781320">
   <line stroke="black" stroke-linecap="round" y1="78.1264" x1="97.2392" y2="66.2464" stroke-width="1.728" x2="97.2392"/>
  </g>
  <g partID="629880">
   <line stroke="black" stroke-linecap="round" y1="103.27" x1="133.354" y2="85.3264" stroke-width="1.728" x2="133.239"/>
  </g>
  <g partID="629820">
   <line stroke="black" stroke-linecap="round" y1="85.3264" x1="133.239" y2="78.1264" stroke-width="1.728" x2="111.639"/>
  </g>
  <g partID="629830">
   <line stroke="black" stroke-linecap="round" y1="106.005" x1="127.882" y2="103.27" stroke-width="1.728" x2="133.354"/>
  </g>
  <g partID="628820">
   <line stroke="black" stroke-linecap="round" y1="96.1832" x1="140.439" y2="81.753" stroke-width="1.728" x2="140.546"/>
  </g>
  <g partID="628720">
   <line stroke="black" stroke-linecap="round" y1="98.8168" x1="145.791" y2="96.1832" stroke-width="1.728" x2="140.439"/>
  </g>
  <g partID="781410">
   <line stroke="black" stroke-linecap="round" y1="74.66" x1="118.839" y2="74.3933" stroke-width="1.728" x2="104.439"/>
  </g>
  <g partID="781380">
   <line stroke="black" stroke-linecap="round" y1="74.3933" x1="104.439" y2="66.2464" stroke-width="1.728" x2="104.439"/>
  </g>
  <g partID="628710">
   <line stroke="black" stroke-linecap="round" y1="81.7528" x1="140.546" y2="74.6595" stroke-width="1.728" x2="118.839"/>
  </g>
  <g partID="630280">
   <line stroke="black" stroke-linecap="round" y1="42.0728" x1="89.9856" y2="54.0014" stroke-width="1.728" x2="90.0299"/>
  </g>
  <g partID="630340">
   <line stroke="black" stroke-linecap="round" y1="42.0304" x1="39.5112" y2="42.0728" stroke-width="1.728" x2="89.9856"/>
  </g>
  <g partID="770270">
   <line stroke="black" stroke-linecap="round" y1="67.3744" x1="39.7672" y2="42.0304" stroke-width="1.728" x2="39.5112"/>
  </g>
  <g partID="704580">
   <line stroke="black" stroke-linecap="round" y1="99.612" x1="61.3536" y2="67.3744" stroke-width="1.728" x2="39.7672"/>
  </g>
  <g partID="630290">
   <line stroke="black" stroke-linecap="round" y1="99.6931" x1="66.3795" y2="99.612" stroke-width="1.728" x2="61.3536"/>
  </g>
  <g partID="600850">
   <line stroke="black" stroke-linecap="round" y1="157.212" x1="136.782" y2="157.304" stroke-width="1.728" x2="128.099"/>
  </g>
  <g partID="600860">
   <line stroke="black" stroke-linecap="round" y1="151.252" x1="145.914" y2="157.212" stroke-width="1.728" x2="136.782"/>
  </g>
  <g partID="634300">
   <line stroke="black" stroke-linecap="round" y1="171.638" x1="169.239" y2="171.815" stroke-width="1.728" x2="108.084"/>
  </g>
  <g partID="634070">
   <line stroke="black" stroke-linecap="round" y1="171.815" x1="108.084" y2="166.369" stroke-width="1.728" x2="105.36"/>
  </g>
  <g partID="633610">
   <line stroke="black" stroke-linecap="round" y1="166.586" x1="169.239" y2="171.638" stroke-width="1.728" x2="169.239"/>
  </g>
  <g partID="792600">
   <line stroke="black" stroke-linecap="round" y1="130.369" x1="189.918" y2="141.084" stroke-width="1.728" x2="184.56"/>
  </g>
  <g partID="792810">
   <line stroke="black" stroke-linecap="round" y1="121.326" x1="158.928" y2="126.635" stroke-width="1.728" x2="161.222"/>
  </g>
  <g partID="792740">
   <line stroke="black" stroke-linecap="round" y1="85.4153" x1="158.395" y2="121.326" stroke-width="1.728" x2="158.928"/>
  </g>
  <g partID="795290">
   <line stroke="black" stroke-linecap="round" y1="74.5708" x1="140.439" y2="85.4153" stroke-width="1.728" x2="158.395"/>
  </g>
  <g partID="792670">
   <line stroke="black" stroke-linecap="round" y1="66.2104" x1="140.44" y2="74.5708" stroke-width="1.728" x2="140.439"/>
  </g>
  <g partID="794290">
   <line stroke="black" stroke-linecap="round" y1="184.766" x1="25.2392" y2="190.207" stroke-width="1.728" x2="25.2392"/>
  </g>
  <g partID="794900">
   <line stroke="black" stroke-linecap="round" y1="121.326" x1="158.928" y2="126.735" stroke-width="1.728" x2="155.856"/>
  </g>
 </g>
</svg>
