<svg height="512pt" viewBox="0 0 512 512" width="512pt" xmlns="http://www.w3.org/2000/svg"><path d="m256 104.832031c-4.140625 0-7.5 3.359375-7.5 7.5v22.667969c0 4.144531 3.359375 7.5 7.5 7.5s7.5-3.355469 7.5-7.5v-22.667969c0-4.140625-3.359375-7.5-7.5-7.5zm0 0" fill="#4380a0"/><path d="m412.527344 425c-4.140625 0-7.5 3.355469-7.5 7.5v64.5c0 4.144531 3.359375 7.5 7.5 7.5 4.144531 0 7.5-3.355469 7.5-7.5v-64.5c0-4.144531-3.355469-7.5-7.5-7.5zm0 0" fill="#5cba2d"/><path d="m98.585938 425c-4.140626 0-7.5 3.355469-7.5 7.5v64.5c0 4.144531 3.359374 7.5 7.5 7.5 4.140624 0 7.5-3.355469 7.5-7.5v-64.5c0-4.144531-3.355469-7.5-7.5-7.5zm0 0" fill="#5cba2d"/><path d="m223 197h66v277h-66zm0 0" fill="#4380a0"/><path d="m259 197h30v277h-30zm0 0" fill="#3b7191"/><path d="m319 504.5h-126v-17.277344c0-16.691406 13.53125-30.222656 30.222656-30.222656h65.554688c16.691406 0 30.222656 13.53125 30.222656 30.222656zm0 0" fill="#2b6182"/><path d="m288.777344 457h-30c16.691406 0 30.222656 13.53125 30.222656 30.222656v17.277344h30v-17.277344c0-16.691406-13.53125-30.222656-30.222656-30.222656zm0 0" fill="#224f69"/><path d="m481 497h-450c-4.140625 0-7.5 3.355469-7.5 7.5s3.359375 7.5 7.5 7.5h450c4.140625 0 7.5-3.355469 7.5-7.5s-3.359375-7.5-7.5-7.5zm0 0" fill="#5cba2d"/><path d="m306.5 214h-101c-14.359375 0-26-11.640625-26-26s11.640625-26 26-26h101c14.359375 0 26 11.640625 26 26s-11.640625 26-26 26zm0 0" fill="#ff5622"/><path d="m306.5 162h-30c14.359375 0 26 11.640625 26 26s-11.640625 26-26 26h30c14.359375 0 26-11.640625 26-26s-11.640625-26-26-26zm0 0" fill="#e8491d"/><g fill="#8cf2ff"><path d="m146.496094 155.429688-4.714844-1.664063c-3.90625-1.382813-8.191406.667969-9.566406 4.574219-1.378906 3.90625.667968 8.1875 4.574218 9.566406l4.714844 1.664062c.824219.292969 1.667969.433594 2.496094.433594 3.089844 0 5.984375-1.929687 7.070312-5.007812 1.378907-3.90625-.667968-8.1875-4.574218-9.566406zm0 0"/><path d="m69.285156 144.082031 8.4375 2.980469c.828125.292969 1.667969.429688 2.496094.429688 3.089844 0 5.984375-1.925782 7.074219-5.007813 1.378906-3.902344-.671875-8.1875-4.578125-9.566406l-8.4375-2.980469c-3.90625-1.378906-8.1875.671875-9.566406 4.578125-1.382813 3.90625.667968 8.1875 4.574218 9.566406zm0 0"/><path d="m103.035156 155.996094 8.441406 2.976562c.824219.292969 1.667969.429688 2.496094.429688 3.089844 0 5.984375-1.925782 7.070313-5.003906 1.378906-3.90625-.667969-8.1875-4.574219-9.570313l-8.4375-2.976563c-3.910156-1.382812-8.191406.667969-9.570312 4.574219-1.378907 3.90625.671874 8.191407 4.574218 9.570313zm0 0"/><path d="m35.53125 132.171875 8.441406 2.976563c.824219.292968 1.667969.429687 2.496094.429687 3.089844 0 5.984375-1.925781 7.070312-5.003906 1.378907-3.90625-.667968-8.191407-4.574218-9.570313l-8.4375-2.976562c-3.910156-1.386719-8.191406.667968-9.570313 4.574218-1.378906 3.90625.671875 8.1875 4.574219 9.570313zm0 0"/><path d="m15.210938 109.09375-4.714844-1.664062c-3.90625-1.382813-8.191406.667968-9.566406 4.574218-1.378907 3.90625.667968 8.1875 4.574218 9.566406l4.714844 1.664063c.828125.292969 1.667969.429687 2.496094.429687 3.089844 0 5.984375-1.925781 7.070312-5.003906 1.378906-3.90625-.667968-8.1875-4.574218-9.566406zm0 0"/><path d="m10.21875 253.765625-4.714844 1.664063c-3.90625 1.378906-5.953125 5.660156-4.574218 9.566406 1.085937 3.082031 3.980468 5.007812 7.070312 5.007812.828125 0 1.671875-.140625 2.496094-.433594l4.714844-1.664062c3.90625-1.378906 5.953124-5.660156 4.574218-9.566406-1.375-3.90625-5.660156-5.949219-9.566406-4.574219zm0 0"/><path d="m77.722656 229.9375-8.4375 2.980469c-3.90625 1.378906-5.957031 5.660156-4.578125 9.566406 1.089844 3.082031 3.980469 5.007813 7.074219 5.007813.828125 0 1.667969-.140626 2.496094-.429688l8.4375-2.980469c3.90625-1.378906 5.957031-5.664062 4.574218-9.566406-1.378906-3.90625-5.660156-5.953125-9.566406-4.578125zm0 0"/><path d="m111.472656 218.023438-8.4375 2.980468c-3.90625 1.378906-5.953125 5.664063-4.574218 9.566406 1.085937 3.082032 3.980468 5.007813 7.070312 5.007813.828125 0 1.671875-.140625 2.496094-.429687l8.441406-2.980469c3.902344-1.378907 5.953125-5.660157 4.574219-9.566407-1.378907-3.90625-5.660157-5.953124-9.570313-4.578124zm0 0"/><path d="m43.96875 241.851562-8.4375 2.976563c-3.90625 1.382813-5.953125 5.664063-4.574219 9.570313 1.085938 3.082031 3.980469 5.003906 7.070313 5.003906.828125 0 1.671875-.136719 2.496094-.429688l8.441406-2.976562c3.902344-1.378906 5.953125-5.664063 4.574218-9.570313-1.378906-3.90625-5.660156-5.949219-9.570312-4.574219zm0 0"/><path d="m141.503906 207.429688-4.714844 1.664062c-3.90625 1.378906-5.953124 5.660156-4.574218 9.566406 1.085937 3.082032 3.980468 5.003906 7.070312 5.003906.828125 0 1.671875-.136718 2.496094-.429687l4.714844-1.664063c3.90625-1.378906 5.953125-5.660156 4.574218-9.566406-1.375-3.90625-5.660156-5.953125-9.566406-4.574218zm0 0"/><path d="m135 188.5c0-4.144531-3.359375-7.5-7.5-7.5h-5c-4.140625 0-7.5 3.355469-7.5 7.5s3.359375 7.5 7.5 7.5h5c4.140625 0 7.5-3.355469 7.5-7.5zm0 0"/><path d="m92.5 181h-10c-4.140625 0-7.5 3.355469-7.5 7.5s3.359375 7.5 7.5 7.5h10c4.140625 0 7.5-3.355469 7.5-7.5s-3.359375-7.5-7.5-7.5zm0 0"/><path d="m52.5 181h-10c-4.140625 0-7.5 3.355469-7.5 7.5s3.359375 7.5 7.5 7.5h10c4.140625 0 7.5-3.355469 7.5-7.5s-3.359375-7.5-7.5-7.5zm0 0"/><path d="m7.5 196h5c4.140625 0 7.5-3.355469 7.5-7.5s-3.359375-7.5-7.5-7.5h-5c-4.140625 0-7.5 3.355469-7.5 7.5s3.359375 7.5 7.5 7.5zm0 0"/><path d="m368 170.003906c.828125 0 1.671875-.140625 2.496094-.433594l4.714844-1.664062c3.90625-1.378906 5.953124-5.660156 4.574218-9.566406-1.375-3.90625-5.664062-5.953125-9.566406-4.574219l-4.714844 1.664063c-3.90625 1.378906-5.953125 5.660156-4.574218 9.566406 1.085937 3.082031 3.980468 5.007812 7.070312 5.007812zm0 0"/><path d="m398.027344 159.402344c.828125 0 1.671875-.136719 2.5-.429688l8.4375-2.980468c3.90625-1.378907 5.953125-5.660157 4.574218-9.566407-1.378906-3.90625-5.660156-5.953125-9.566406-4.574219l-8.441406 2.976563c-3.902344 1.378906-5.953125 5.664063-4.574219 9.570313 1.085938 3.082031 3.980469 5.003906 7.070313 5.003906zm0 0"/><path d="m431.78125 147.492188c.828125 0 1.671875-.140626 2.496094-.429688l8.4375-2.980469c3.90625-1.378906 5.957031-5.664062 4.578125-9.566406-1.378907-3.90625-5.660157-5.953125-9.570313-4.578125l-8.4375 2.980469c-3.90625 1.378906-5.957031 5.660156-4.574218 9.566406 1.085937 3.082031 3.980468 5.007813 7.070312 5.007813zm0 0"/><path d="m465.53125 135.578125c.832031 0 1.671875-.140625 2.5-.429687l8.4375-2.980469c3.90625-1.378907 5.953125-5.660157 4.574219-9.566407-1.378907-3.90625-5.660157-5.953124-9.566407-4.578124l-8.441406 2.980468c-3.902344 1.378906-5.953125 5.664063-4.574218 9.566406 1.085937 3.082032 3.980468 5.007813 7.070312 5.007813zm0 0"/><path d="m499.285156 123.664062c.828125 0 1.671875-.136718 2.496094-.429687l4.714844-1.664063c3.90625-1.378906 5.953125-5.660156 4.574218-9.566406-1.375-3.90625-5.660156-5.949218-9.566406-4.574218l-4.714844 1.664062c-3.90625 1.378906-5.953124 5.660156-4.574218 9.566406 1.085937 3.082032 3.980468 5.003906 7.070312 5.003906zm0 0"/><path d="m506.496094 255.429688-4.714844-1.664063c-3.90625-1.382813-8.191406.667969-9.566406 4.574219-1.378906 3.90625.667968 8.1875 4.574218 9.566406l4.714844 1.664062c.824219.292969 1.667969.433594 2.496094.433594 3.089844 0 5.984375-1.929687 7.070312-5.007812 1.378907-3.90625-.667968-8.1875-4.574218-9.566406zm0 0"/><path d="m476.46875 244.828125-8.4375-2.976563c-3.910156-1.382812-8.191406.667969-9.570312 4.574219-1.378907 3.90625.671874 8.1875 4.574218 9.566407l8.441406 2.980468c.824219.292969 1.667969.429688 2.496094.429688 3.089844 0 5.984375-1.925782 7.070313-5.003906 1.378906-3.90625-.667969-8.191407-4.574219-9.570313zm0 0"/><path d="m442.714844 232.917969-8.4375-2.980469c-3.90625-1.382812-8.1875.671875-9.566406 4.578125-1.382813 3.902344.667968 8.1875 4.574218 9.566406l8.4375 2.980469c.828125.289062 1.667969.429688 2.496094.429688 3.089844 0 5.984375-1.925782 7.074219-5.007813 1.378906-3.90625-.671875-8.1875-4.578125-9.566406zm0 0"/><path d="m408.964844 221.003906-8.4375-2.980468c-3.910156-1.378907-8.191406.671874-9.570313 4.578124-1.378906 3.90625.671875 8.1875 4.574219 9.566407l8.441406 2.980469c.824219.292968 1.667969.429687 2.496094.429687 3.089844 0 5.984375-1.925781 7.070312-5.007813 1.378907-3.902343-.667968-8.1875-4.574218-9.566406zm0 0"/><path d="m375.210938 209.09375-4.714844-1.664062c-3.90625-1.382813-8.191406.667968-9.566406 4.574218-1.378907 3.90625.667968 8.1875 4.574218 9.566406l4.714844 1.664063c.828125.292969 1.667969.429687 2.496094.429687 3.089844 0 5.984375-1.925781 7.070312-5.003906 1.378906-3.90625-.667968-8.1875-4.574218-9.566406zm0 0"/><path d="m397 188.5c0-4.144531-3.359375-7.5-7.5-7.5h-5c-4.140625 0-7.5 3.355469-7.5 7.5s3.359375 7.5 7.5 7.5h5c4.140625 0 7.5-3.355469 7.5-7.5zm0 0"/><path d="m469.5 196c4.140625 0 7.5-3.355469 7.5-7.5s-3.359375-7.5-7.5-7.5h-10c-4.140625 0-7.5 3.355469-7.5 7.5s3.359375 7.5 7.5 7.5zm0 0"/><path d="m437 188.5c0-4.144531-3.359375-7.5-7.5-7.5h-10c-4.140625 0-7.5 3.355469-7.5 7.5s3.359375 7.5 7.5 7.5h10c4.140625 0 7.5-3.355469 7.5-7.5zm0 0"/><path d="m504.5 181h-5c-4.140625 0-7.5 3.355469-7.5 7.5s3.359375 7.5 7.5 7.5h5c4.140625 0 7.5-3.355469 7.5-7.5s-3.359375-7.5-7.5-7.5zm0 0"/></g><path d="m271.5 101c0 8.558594-6.941406 15.5-15.5 15.5s-15.5-6.941406-15.5-15.5 6.941406-15.5 15.5-15.5 15.5 6.941406 15.5 15.5zm0 0" fill="#ff5622"/><path d="m287.347656 63.972656c-9.082031-6.890625-19.910156-10.53125-31.3125-10.53125-11.433594 0-22.289062 3.660156-31.394531 10.589844-3.292969 2.511719-3.933594 7.214844-1.421875 10.511719 2.507812 3.296875 7.214844 3.933593 10.507812 1.425781 6.46875-4.925781 14.183594-7.527344 22.308594-7.527344 8.101563 0 15.796875 2.585938 22.25 7.484375 3.296875 2.5 8.003906 1.855469 10.507813-1.445312 2.5-3.300781 1.855469-8.003907-1.445313-10.507813zm0 0" fill="#8cf2ff"/><path d="m299.9375 41.085938c-12.742188-9.667969-27.925781-14.777344-43.902344-14.777344-16.019531 0-31.226562 5.128906-43.980468 14.839844-3.296876 2.507812-3.933594 7.214843-1.425782 10.511718 2.507813 3.292969 7.214844 3.933594 10.511719 1.425782 10.121094-7.707032 22.1875-11.777344 34.894531-11.777344 12.675782 0 24.722656 4.054687 34.835938 11.726562 3.300781 2.503906 8.003906 1.859375 10.507812-1.4375 2.503906-3.300781 1.859375-8.007812-1.441406-10.511718zm0 0" fill="#8cf2ff"/><path d="m312.035156 18.859375c-16.246094-12.339844-35.613281-18.859375-56-18.859375-20.425781 0-39.820312 6.542969-56.078125 18.917969-3.296875 2.507812-3.933593 7.214843-1.425781 10.511719 2.515625 3.300781 7.222656 3.929687 10.511719 1.425781 13.625-10.375 29.875-15.855469 46.992187-15.855469 17.082032 0 33.3125 5.464844 46.929688 15.804688 3.296875 2.507812 8.003906 1.863281 10.507812-1.4375 2.503906-3.296876 1.863282-8.003907-1.4375-10.507813zm0 0" fill="#8cf2ff"/><path d="m406.761719 448h21.921875c26.636718 0 48.230468-21.59375 48.230468-48.230469v-23.769531c0-2.210938-1.792968-4-4-4h-17.925781c-26.636719 0-48.230469 21.59375-48.230469 48.230469v27.769531zm0 0" fill="#66cf32"/><path d="m454.988281 372c-2.753906 0-5.449219.242188-8.074219.6875v27.082031c0 23.882813-17.363281 43.699219-40.15625 47.542969v.6875h21.925782c26.636718 0 48.230468-21.59375 48.230468-48.230469v-23.769531c0-2.210938-1.792968-4-4-4zm0 0" fill="#5cba2d"/><path d="m419.183594 448h-21.921875c-26.640625 0-48.234375-21.59375-48.234375-48.230469v-23.769531c0-2.210938 1.792968-4 4-4h17.925781c26.636719 0 48.230469 21.59375 48.230469 48.230469zm0 0" fill="#6fe036"/><path d="m92.816406 448h21.921875c26.640625 0 48.234375-21.59375 48.234375-48.230469v-23.769531c0-2.210938-1.792968-4-4-4h-17.925781c-26.636719 0-48.230469 21.59375-48.230469 48.230469zm0 0" fill="#66cf32"/><path d="m141.046875 372c-2.753906 0-5.449219.242188-8.074219.6875v27.082031c0 23.882813-17.367187 43.699219-40.15625 47.542969v.6875h21.921875c26.640625 0 48.234375-21.59375 48.234375-48.230469v-23.769531c0-2.210938-1.792968-4-4-4zm0 0" fill="#5cba2d"/><path d="m105.238281 448h-21.921875c-26.636718 0-48.230468-21.59375-48.230468-48.230469v-23.769531c0-2.210938 1.792968-4 4-4h17.925781c26.636719 0 48.230469 21.59375 48.230469 48.230469v27.769531zm0 0" fill="#6fe036"/></svg>